<svg width="83" height="73" viewBox="0 0 83 73" fill="none" xmlns="http://www.w3.org/2000/svg">
<path d="M54.0254 39.9723H53.5576V39.684H54.836V39.9723H54.3682V41.244H54.0254V39.9723Z" fill="#003CC3"/>
<path d="M55.0146 39.684H55.4978L55.8626 40.7567H55.8667L56.2122 39.684H56.695V41.244H56.374V40.1385H56.3693L55.9874 41.244H55.7226L55.3404 40.1494H55.3359V41.244H55.0146V39.684Z" fill="#003CC3"/>
<path d="M42.7888 38.9072V35.9593L52.1329 27.5458L53.7697 29.0196L42.7888 38.9072ZM39.7182 38.9072L28.7373 29.0196L30.3744 27.5458L39.7182 35.9593V38.9072ZM45.2741 22.9958C44.2493 23.9185 42.8868 24.4267 41.4377 24.4267C39.9889 24.4267 38.6266 23.9185 37.6015 22.9958L36.6976 22.1838L37.6015 21.3699C39.7164 19.4657 43.1592 19.4657 45.2741 21.3699L46.178 22.1838L45.2741 22.9958ZM28.9214 15.1802L39.9024 5.2926V8.24079L30.5585 16.6543L28.9214 15.1802ZM42.973 5.2926L53.9542 15.1802L52.3171 16.6543L42.973 8.24079V5.2926ZM53.2186 24.6135L49.2501 21.0401L49.2495 21.0407L47.4447 19.4156C44.1322 16.433 38.7414 16.433 35.4289 19.4156L34.5271 20.2277L34.5268 20.228L32.7305 18.6106L32.7308 18.6103L41.4377 10.7688L51.2311 19.5869L54.8296 22.8269C56.0285 23.9065 57.9725 23.9065 59.1721 22.8269L54.4894 18.6106L54.4897 18.6103L58.295 15.182L42.973 1.38229L41.4377 0L39.9024 1.38229L24.5783 15.182L29.4722 19.5866L30.0166 20.0765L33.4411 23.1603L35.4289 24.9501C37.0334 26.3948 39.1674 27.1915 41.4377 27.1915C43.7062 27.1915 45.8402 26.3948 47.4447 24.9501L48.3468 24.138L48.3477 24.1374L49.9615 25.5906L49.9606 25.5912L41.2535 33.4313L31.4604 24.6132L30.9922 24.1925L28.1691 21.6506C26.9701 20.5711 25.0261 20.5711 23.8271 21.6506L28.2038 25.5915L24.3962 29.0196L39.7182 42.8175L41.2535 44.2001L42.7888 42.8175L58.1108 29.0196L53.2181 24.6141L53.2186 24.6135Z" fill="#003CC3"/>
<path d="M6.67365 62.3823C8.78504 63.6255 10.9523 64.9204 10.9523 67.4069C10.9523 70.1524 8.33457 72.0172 4.87208 72.0172C3.1832 72.0172 1.01561 71.4993 0.368005 70.9812C0.199117 70.8776 0.086427 70.8 0.086427 70.4892L0.00198337 66.3709C-0.0262627 66.2156 0.255609 66.1897 0.311807 66.3191C1.46607 68.4947 2.92957 71.3696 5.60383 71.3696C6.89903 71.3696 8.19364 70.8517 8.19364 68.9092C8.19364 66.4745 6.13903 65.2573 4.14033 64.04C2.16957 62.8484 0.227363 61.7088 0.227363 59.4035C0.227363 56.503 3.32384 55.2337 6.13903 55.2337C7.48984 55.2337 8.98188 55.4926 9.77012 55.8036C10.1361 55.959 10.1923 56.1144 10.1923 56.3215V60.1288C10.1923 60.2324 9.93901 60.3104 9.88252 60.2065C9.43235 59.3521 8.39077 55.8036 5.37874 55.8036C3.97114 55.8036 2.81717 56.5545 2.81717 58.1345C2.81717 60.1029 4.70319 61.2169 6.67365 62.3823Z" fill="#003CC3"/>
<path d="M32.7588 67.6401C32.6179 68.6502 32.4772 70.1525 32.4772 71.318C32.4772 71.6028 32.3928 71.7063 32.055 71.7063H19.6126C19.5002 71.7063 19.5002 71.3956 19.6126 71.3956C21.33 71.3956 21.6113 71.1108 21.6113 69.6085V57.6166C21.6113 56.1404 21.33 55.8294 19.6126 55.8294C19.5002 55.8294 19.5002 55.5187 19.6126 55.5187H31.5483C31.7734 55.5187 31.8299 55.5964 31.8299 55.7517L31.8861 59.1966C31.8861 59.2743 31.6045 59.326 31.5483 59.2225C30.929 57.202 29.5496 56.2696 27.2132 56.2696H26.3687C25.2427 56.2696 24.736 56.71 24.736 57.6425V62.9262H27.0725C29.2963 62.9262 30.4503 62.1751 30.4503 60.9578C30.4503 60.8543 30.7601 60.8543 30.7601 60.9578C30.7601 62.0974 30.7319 62.5893 30.7319 63.2887C30.7319 64.1694 30.8163 64.9464 30.8163 65.9306C30.8163 66.0083 30.4785 66.0083 30.4785 65.9306C30.4785 64.5321 29.2963 63.6515 27.0443 63.6515H24.736V69.5049C24.736 70.515 25.13 70.9811 26.0309 70.9811H26.9598C29.8874 70.9811 31.6045 69.9195 32.421 67.5883C32.449 67.4847 32.7588 67.5624 32.7588 67.6401Z" fill="#003CC3"/>
<path d="M54.565 67.6401C54.424 68.6502 54.2834 70.1525 54.2834 71.318C54.2834 71.6028 54.1989 71.7064 53.8612 71.7064H41.4188C41.3064 71.7064 41.3064 71.3957 41.4188 71.3957C43.1362 71.3957 43.4175 71.1108 43.4175 69.6085V57.6166C43.4175 56.1404 43.1362 55.8294 41.4188 55.8294C41.3064 55.8294 41.3064 55.5187 41.4188 55.5187H53.3545C53.5796 55.5187 53.6361 55.5964 53.6361 55.7517L53.6923 59.1966C53.6923 59.2743 53.4107 59.3261 53.3545 59.2225C52.7351 57.202 51.3558 56.2696 49.0193 56.2696H48.1749C47.0489 56.2696 46.5422 56.7101 46.5422 57.6425V62.9262H48.8787C51.1025 62.9262 52.2564 62.1751 52.2564 60.9579C52.2564 60.8543 52.5663 60.8543 52.5663 60.9579C52.5663 62.0974 52.538 62.5894 52.538 63.2887C52.538 64.1694 52.6225 64.9464 52.6225 65.9306C52.6225 66.0083 52.2847 66.0083 52.2847 65.9306C52.2847 64.5322 51.1025 63.6515 48.8504 63.6515H46.5422V69.5049C46.5422 70.515 46.9362 70.9811 47.8371 70.9811H48.766C51.6936 70.9811 53.4107 69.9195 54.2272 67.5883C54.2551 67.4848 54.565 67.5624 54.565 67.6401Z" fill="#003CC3"/>
<path d="M82.936 55.8296C81.4443 55.8296 80.5151 56.995 80.5151 58.8339V72.0949C80.5151 72.1984 80.2618 72.2246 80.2056 72.1726L67.0035 58.342V68.417C67.0035 70.2559 67.8759 71.3958 69.3397 71.3958C69.4241 71.3958 69.4241 71.7065 69.3397 71.7065C68.5235 71.7065 67.6508 71.6547 66.6092 71.6547C65.4835 71.6547 64.3854 71.7065 63.4848 71.7065C63.3721 71.7065 63.3721 71.3958 63.4848 71.3958C65.1172 71.3958 66.1587 70.2559 66.1587 68.417V57.4611C64.8921 56.1921 64.1038 55.8296 63.2032 55.8296C63.1185 55.8296 63.1185 55.5186 63.2032 55.5186C63.935 55.5186 64.7794 55.5706 65.4552 55.5706C66.8063 55.5706 67.9606 55.5186 68.5514 55.5186C69.0301 55.5186 69.0584 55.8813 69.9593 56.8655L79.6989 67.1998V58.8339C79.6989 56.995 78.8262 55.8296 77.3624 55.8296C77.278 55.8296 77.278 55.5186 77.3624 55.5186C78.1786 55.5186 79.0513 55.5965 80.0929 55.5965C81.1062 55.5965 82.1198 55.5186 82.936 55.5186C83.0205 55.5186 83.0205 55.8296 82.936 55.8296Z" fill="#003CC3"/>
</svg>
