<svg width="40" height="40" viewBox="0 0 40 40" fill="none" xmlns="http://www.w3.org/2000/svg">
<path d="M20 40C31.0457 40 40 31.0457 40 20C40 8.95431 31.0457 0 20 0C8.9543 0 0 8.95431 0 20C0 31.0457 8.9543 40 20 40Z" fill="url(#paint0_linear_1_4098)"/>
<path d="M8 32L9.7254 25.5802C8.74956 23.8166 8.24042 21.8554 8.24042 19.8519C8.24042 13.3192 13.5722 8 20.1202 8C26.6682 8 32 13.3192 32 19.8519C32 26.3845 26.6682 31.7037 20.1202 31.7037C18.1544 31.7037 16.2169 31.2099 14.4773 30.2645L8 32ZM14.7885 27.866L15.1986 28.1058C16.6977 28.9947 18.3948 29.4603 20.1202 29.4603C25.4378 29.4603 29.7513 25.1429 29.7513 19.8519C29.7513 14.5608 25.4237 10.2434 20.1202 10.2434C14.8026 10.2434 10.4891 14.5608 10.4891 19.8519C10.4891 21.6014 10.9699 23.3228 11.9034 24.8324L12.1579 25.2416L11.1962 28.8254L14.7885 27.866Z" fill="white"/>
<path fill-rule="evenodd" clip-rule="evenodd" d="M23.6957 22.2741C23.2231 21.9694 22.6155 21.6356 22.0754 21.8823C21.6568 22.0709 21.3867 22.782 21.1166 23.1448C20.9816 23.3335 20.806 23.3625 20.59 23.2609C19.0101 22.5789 17.7948 21.4469 16.9171 19.8797C16.7686 19.633 16.7956 19.4443 16.9711 19.2121C17.2412 18.8783 17.5653 18.501 17.6328 18.0512C17.7003 17.6013 17.5112 17.0789 17.3357 16.6726C17.1197 16.1646 16.8631 15.4245 16.3905 15.1343C15.9449 14.8731 15.3777 15.0182 14.9862 15.352C14.311 15.947 13.9869 16.8612 14.0004 17.79C14.0004 18.0512 14.0274 18.3124 14.0949 18.5591C14.23 19.1686 14.4865 19.7345 14.7836 20.2715C14.9996 20.6778 15.2427 21.0696 15.4993 21.4469C16.35 22.6804 17.4032 23.7543 18.6185 24.567C19.2262 24.9733 19.8878 25.3216 20.563 25.5683C21.3192 25.844 22.0078 26.1197 22.8315 25.9456C23.6957 25.7714 24.5464 25.191 24.884 24.3058C24.9786 24.0445 25.0326 23.7398 24.9785 23.4641C24.857 22.8981 24.1278 22.5643 23.6957 22.2741Z" fill="white"/>
<defs>
<linearGradient id="paint0_linear_1_4098" x1="34.1462" y1="5.85417" x2="5.85924" y2="34.141" gradientUnits="userSpaceOnUse">
<stop stop-color="#60FC7C"/>
<stop offset="1" stop-color="#4AB161"/>
</linearGradient>
</defs>
</svg>
