<svg width="64" height="64" viewBox="0 0 64 64" fill="none" xmlns="http://www.w3.org/2000/svg">
<path fill-rule="evenodd" clip-rule="evenodd" d="M16.6201 24.2528C16.5034 22.6359 16.6406 21.1124 16.6406 21.1124C16.3421 20.8389 15.8186 20.3499 15.2371 19.9281C14.2958 19.2455 13.2022 18.739 12.6633 19.6078C12.1787 20.389 12.9009 22.1719 13.0354 23.0129C13.4316 25.4901 13.7751 27.7023 16.6201 24.2528Z" fill="#F9C795"/>
<path fill-rule="evenodd" clip-rule="evenodd" d="M15.3449 21.0573C15.2323 20.6292 14.7936 20.3733 14.3655 20.4861C13.9374 20.5987 13.6815 21.0373 13.7941 21.4655C13.9124 21.9102 13.9949 22.2847 14.0619 22.6616C14.1288 23.0382 14.1786 23.4117 14.2321 23.8576C14.2841 24.298 14.6833 24.6127 15.1236 24.5607C15.564 24.5087 15.8788 24.1096 15.8268 23.6692C15.7694 23.1912 15.7159 22.7905 15.644 22.3855C15.5721 21.9808 15.4803 21.5662 15.345 21.0575L15.3449 21.0573Z" fill="#EDB47C"/>
<path fill-rule="evenodd" clip-rule="evenodd" d="M34.585 24.2528C34.7016 22.6359 34.5645 21.1124 34.5645 21.1124C34.863 20.8389 35.3865 20.3499 35.968 19.9281C36.9092 19.2455 38.0028 18.739 38.5417 19.6078C39.0263 20.389 38.3041 22.1719 38.1696 23.0129C37.7735 25.4901 37.43 27.7023 34.585 24.2528Z" fill="#F9C795"/>
<path fill-rule="evenodd" clip-rule="evenodd" d="M35.86 21.0573C35.9727 20.6292 36.4112 20.3733 36.8394 20.4861C37.2676 20.5987 37.5234 21.0373 37.4108 21.4655C37.2926 21.9102 37.2101 22.2847 37.1431 22.6616C37.0762 23.0382 37.0263 23.4117 36.9728 23.8576C36.9208 24.298 36.5217 24.6127 36.0813 24.5607C35.6409 24.5087 35.3262 24.1096 35.3782 23.6692C35.4356 23.1912 35.489 22.7905 35.5609 22.3855C35.6328 21.9808 35.7247 21.5662 35.8599 21.0575L35.86 21.0573Z" fill="#EDB47C"/>
<path fill-rule="evenodd" clip-rule="evenodd" d="M25.6023 43.7355L19.2339 38.0575C19.8819 36.5334 20.2125 33.3911 20.2258 28.6309H30.9788C30.992 33.3912 31.3226 36.5335 31.9706 38.0575L25.6023 43.7355Z" fill="#EDBB8A"/>
<path fill-rule="evenodd" clip-rule="evenodd" d="M25.6025 43.7355L21.3843 39.9745C21.8644 38.2736 22.11 35.3777 22.1214 31.2871H31.0249C31.1369 34.5806 31.4522 36.8375 31.9709 38.0575L25.6025 43.7355Z" fill="#F9C795"/>
<path fill-rule="evenodd" clip-rule="evenodd" d="M15.2373 19.9281C15.5409 23.3252 16.4924 28.8748 18.7667 31.3873C19.6481 32.3611 22.2323 35.1467 23.5598 35.6686C24.4009 35.9992 24.7103 35.7007 25.6024 35.6911C26.4946 35.7007 26.8039 35.9992 27.6452 35.6686C28.9727 35.1467 31.5568 32.3611 32.4383 31.3873C34.7126 28.8748 35.6641 23.3252 35.9677 19.9281C35.9677 12.4826 30.7819 9.18018 25.6026 9.13818C20.4233 9.18006 15.2373 12.4826 15.2373 19.9281Z" fill="#F2CB9F"/>
<path fill-rule="evenodd" clip-rule="evenodd" d="M20.6421 33.3529C21.6602 34.3574 22.8104 35.3739 23.5601 35.6685C24.4012 35.9991 24.7106 35.7006 25.6027 35.691C26.4948 35.7006 26.8042 35.9991 27.6454 35.6685C28.9729 35.1466 31.5571 32.361 32.4386 31.3873C34.7128 28.8748 35.6643 23.3251 35.9679 19.928C35.9679 14.9904 33.6869 11.8755 30.6399 10.3246C29.6618 10.0416 28.6448 9.89864 27.6278 9.88989C22.4486 9.93439 17.2627 13.4444 17.2627 21.3576C17.5596 24.8876 18.4758 30.604 20.6421 33.3529Z" fill="#FDD7AD"/>
<path fill-rule="evenodd" clip-rule="evenodd" d="M49.8299 55.1468V50.8362C49.8299 44.1596 44.0955 42.9893 35.7703 39.5462L32.4166 36.8871L25.6025 42.9626L18.7882 36.8871L15.4346 39.5462C7.1095 42.9893 1.375 44.1596 1.375 50.8362V55.1468H49.8299Z" fill="#4F5D99"/>
<path fill-rule="evenodd" clip-rule="evenodd" d="M40.3607 41.3743C39.992 41.2281 39.6147 41.0797 39.2295 40.9285L33.3076 55.1468H34.6245L40.3606 41.3743H40.3607Z" fill="#45518A"/>
<path fill-rule="evenodd" clip-rule="evenodd" d="M17.8975 55.1468L11.9756 40.9285L15.4345 39.5462L18.7881 36.8871L25.6023 42.9626L32.4166 36.8871L35.7702 39.5462L39.2291 40.9285L33.3073 55.1468H25.6023H17.8975Z" fill="#E7EBF5"/>
<path fill-rule="evenodd" clip-rule="evenodd" d="M25.6027 42.9625L28.8404 46.2883L27.3861 48.495L28.1837 55.1468H23.0219L23.8195 48.495L22.3652 46.2883L25.6027 42.9625Z" fill="#6A75AD"/>
<path fill-rule="evenodd" clip-rule="evenodd" d="M25.6023 42.9625L28.84 46.2883L27.3857 48.495L28.1833 55.1468H24.3496L24.9816 48.495L23.5273 46.2883L25.6023 42.9625Z" fill="#7986BF"/>
<path fill-rule="evenodd" clip-rule="evenodd" d="M25.6024 42.9625L28.84 46.2883L27.3857 48.495H25.6024H23.819L22.3647 46.2883L25.6024 42.9625Z" fill="#45518A"/>
<path fill-rule="evenodd" clip-rule="evenodd" d="M26.1836 43.5597L28.84 46.2883L27.3857 48.4951H25.6023H24.9816L23.5273 46.2883L26.1836 43.5597Z" fill="#4F5D99"/>
<path fill-rule="evenodd" clip-rule="evenodd" d="M53.7166 42.0053L55.6813 42.8203L57.2533 41.766L59.4265 43.9392L58.3722 45.5113L59.1872 47.476L61.0431 47.8419V50.9152L59.1872 51.281L58.3722 53.2458L59.4265 54.8179L57.2533 56.991L55.6813 55.9368L53.7166 56.7518L53.3506 58.6075H50.2773L49.9115 56.7518L47.9467 55.9368L46.3746 56.991L44.2016 54.8179L45.2558 53.2458L44.4408 51.281L42.585 50.9152V47.8419L44.4408 47.476L45.2558 45.5113L44.2016 43.9392L46.3746 41.766L47.9467 42.8203L49.9115 42.0053L50.2773 40.1495H53.3506L53.7166 42.0053Z" fill="#2A93FC"/>
<path fill-rule="evenodd" clip-rule="evenodd" d="M53.7164 42.0053L54.4514 42.3103L54.4639 42.3154L55.6811 42.8203L55.682 42.8198L56.0994 42.9925L57.5241 42.037L59.4263 43.9392L58.372 45.5113L59.187 47.476L61.0429 47.8419V50.9152L59.187 51.281L58.372 53.2458L59.4263 54.8179L57.5241 56.72L56.0994 55.7645L55.682 55.9374L55.6811 55.9368L53.7164 56.7518L53.3504 58.6075H50.7576L50.3744 56.6639L48.2045 55.7638L47.9465 55.9368L46.7785 56.72L44.8764 54.8179L45.9306 53.2459L44.9506 50.8767L43.2598 50.5434V49.3785V48.2138L44.9506 47.8804L45.9306 45.5113L44.8764 43.9392L46.7785 42.037L48.2045 42.9934L50.3744 42.0933L50.7576 40.1495H53.3504L53.7164 42.0053Z" fill="#43A2FF"/>
<path d="M52.3204 53.8078C54.7666 53.8078 56.7496 51.8248 56.7496 49.3786C56.7496 46.9324 54.7666 44.9493 52.3204 44.9493C49.8742 44.9493 47.8911 46.9324 47.8911 49.3786C47.8911 51.8248 49.8742 53.8078 52.3204 53.8078Z" fill="#2A93FC"/>
<path d="M51.8141 53.808C54.2604 53.808 56.2435 51.8249 56.2435 49.3786C56.2435 46.9323 54.2604 44.9492 51.8141 44.9492C49.3679 44.9492 47.3848 46.9323 47.3848 49.3786C47.3848 51.8249 49.3679 53.808 51.8141 53.808Z" fill="#F0F0FF"/>
<path d="M41.0029 30.1455H44.8432V37.6856H41.0029V30.1455Z" fill="#43A2FF"/>
<path d="M46.9302 24.4822H50.7704V37.6857H46.9302V24.4822Z" fill="#FDC72E"/>
<path d="M52.8574 27.2371H56.6975V37.6857H52.8574V27.2371Z" fill="#FB545C"/>
<path d="M58.7847 21.3933H62.6249V37.6857H58.7847V21.3933Z" fill="#4FE88E"/>
<path d="M41.0029 30.1455H42.0254V37.6856H41.0029V30.1455Z" fill="#2A93FC"/>
<path d="M46.9302 24.4822H47.9527V37.6857H46.9302V24.4822Z" fill="#F9AC00"/>
<path d="M52.8574 27.2371H53.8799V37.6857H52.8574V27.2371Z" fill="#F0414A"/>
<path d="M58.7847 21.3933H59.8072V37.6856H58.7847V21.3933Z" fill="#3FC977"/>
<path fill-rule="evenodd" clip-rule="evenodd" d="M25.9513 43.3209L20.7087 48.7061L15.4346 39.5461L20.7899 47.906L25.6024 42.9625L25.9513 43.3209Z" fill="#D6DBE8"/>
<path fill-rule="evenodd" clip-rule="evenodd" d="M25.6023 42.9625L20.7898 47.906L15.4346 39.5461L18.7882 36.887L25.6023 42.9625Z" fill="white"/>
<path fill-rule="evenodd" clip-rule="evenodd" d="M25.6025 42.9625L30.4152 47.906L35.7704 39.5461L32.4168 36.887L25.6025 42.9625Z" fill="white"/>
<path fill-rule="evenodd" clip-rule="evenodd" d="M10.8442 41.3742C11.213 41.228 11.5902 41.0796 11.9755 40.9283L17.8974 55.1467H16.5805L10.8442 41.3742Z" fill="#45518A"/>
<path fill-rule="evenodd" clip-rule="evenodd" d="M25.6025 43.6793L30.4963 48.7061L35.7704 39.5461L30.4152 47.906L25.6025 42.9625V43.6793Z" fill="#C7CEE0"/>
<path fill-rule="evenodd" clip-rule="evenodd" d="M15.2387 19.9269C9.21416 4.86787 29.0875 2.56499 31.7572 8.21924C33.6355 7.92624 41.9168 5.92649 35.9672 19.9269C35.9355 18.9396 35.5019 17.1587 34.5288 15.9277C34.506 16.1636 34.3385 16.9029 33.3877 17.7936C33.0894 16.0921 32.2077 14.3629 31.0105 14.1244C29.3128 18.4109 19.5823 11.6886 15.2387 19.9269Z" fill="#2C3033"/>
</svg>
