<svg width="64" height="64" viewBox="0 0 64 64" fill="none" xmlns="http://www.w3.org/2000/svg">
<path d="M32 3C31.3521 3 30.7228 3.21697 30.2125 3.61631L8 21L10.81 24.58L32 8L53.19 24.58L56 21L33.7875 3.61631C33.2772 3.21697 32.6479 3 32 3Z" fill="#0030C3"/>
<path d="M50 16.304V3H42V10.043L50 16.304Z" fill="#757575"/>
<path d="M50 22.08V34H14V22.08L32 8L50 22.08Z" fill="#EEEEEE"/>
<path d="M49.946 22.038L32 8L14 22.08V25.893L32 11.809L47 23.545V34H50V22.08L49.946 22.038Z" fill="#E0E0E0"/>
<path d="M45 33H35V27H45V33Z" fill="#64B5F6"/>
<path d="M19 27H29V34H19V27Z" fill="#757575"/>
<path d="M29 27V33H19V32H22C23.0609 32 24.0783 31.5786 24.8284 30.8284C25.5786 30.0783 26 29.0609 26 28V27H29Z" fill="#616161"/>
<path d="M45 27V33H35V32H38C39.0609 32 40.0783 31.5786 40.8284 30.8284C41.5786 30.0783 42 29.0609 42 28V27H45Z" fill="#42A5F5"/>
<path d="M8 31H3V56H8C8.53043 56 9.03914 55.7893 9.41421 55.4142C9.78929 55.0391 10 54.5304 10 54V33C10 32.4696 9.78929 31.9609 9.41421 31.5858C9.03914 31.2107 8.53043 31 8 31Z" fill="#64B5F6"/>
<path d="M8 31H5C5.53043 31 6.03914 31.2107 6.41421 31.5858C6.78929 31.9609 7 32.4696 7 33V51C7 51.5304 6.78929 52.0391 6.41421 52.4142C6.03914 52.7893 5.53043 53 5 53H3V56H8C8.53043 56 9.03914 55.7893 9.41421 55.4142C9.78929 55.0391 10 54.5304 10 54V33C10 32.4696 9.78929 31.9609 9.41421 31.5858C9.03914 31.2107 8.53043 31 8 31Z" fill="#42A5F5"/>
<path d="M56 31C55.4696 31 54.9609 31.2107 54.5858 31.5858C54.2107 31.9609 54 32.4696 54 33V54C54 54.5304 54.2107 55.0391 54.5858 55.4142C54.9609 55.7893 55.4696 56 56 56H61V31H56Z" fill="#0030C3"/>
<path d="M48.048 53.048L48 53L30.1716 35.1716C29.4214 34.4214 28.404 34 27.3431 34H10V53H14.3431C15.404 53 16.4214 53.4214 17.1716 54.1716L23.1716 60.1716C23.7023 60.7008 24.4213 60.9977 25.1707 60.9971C25.9202 60.9966 26.6388 60.6987 27.1687 60.1687C27.6987 59.6388 27.9966 58.9202 27.9971 58.1707C27.9977 57.4213 27.7008 56.7023 27.1716 56.1716L30.1716 59.1716C30.4341 59.4348 30.7459 59.6438 31.0892 59.7864C31.4326 59.929 31.8006 60.0026 32.1724 60.0028C32.5442 60.0031 32.9124 59.9301 33.2559 59.7879C33.5994 59.6458 33.9115 59.4373 34.1744 59.1744C34.4373 58.9115 34.6458 58.5994 34.7879 58.2559C34.9301 57.9124 35.0031 57.5442 35.0028 57.1724C35.0026 56.8006 34.929 56.4326 34.7864 56.0892C34.6438 55.7459 34.4348 55.4341 34.1716 55.1716L37.1716 58.1716C37.7023 58.7008 38.4213 58.9977 39.1707 58.9971C39.9202 58.9966 40.6388 58.6987 41.1687 58.1687C41.6987 57.6388 41.9966 56.9202 41.9971 56.1707C41.9977 55.4213 41.7008 54.7023 41.1716 54.1716L44.17 57.17C44.6783 57.6797 45.3621 57.9761 46.0816 57.9986C46.8011 58.0212 47.5021 57.7681 48.0413 57.2912C48.3271 57.0168 48.5546 56.6877 48.7102 56.3234C48.8659 55.9591 48.9464 55.5672 48.947 55.171C48.9477 54.7749 48.8684 54.3827 48.7139 54.0179C48.5594 53.6531 48.3329 53.3232 48.048 53.048Z" fill="#FFCCBC"/>
<path d="M27.99 58.37C27.9466 59.0503 27.6548 59.6909 27.17 60.17C26.908 60.4338 26.5964 60.6432 26.2532 60.7861C25.9099 60.929 25.5418 61.0025 25.17 61.0025C24.7982 61.0025 24.4301 60.929 24.0868 60.7861C23.7436 60.6432 23.432 60.4338 23.17 60.17L17.17 54.17C16.419 53.4204 15.4011 52.9996 14.34 53H10V51H15.4C15.9239 50.9998 16.4427 51.1031 16.9266 51.3039C17.4105 51.5047 17.8501 51.799 18.22 52.17L24.22 58.17C24.7127 58.6631 25.3705 58.9564 26.0666 58.9933C26.7627 59.0303 27.4479 58.8082 27.99 58.37Z" fill="#FFAB91"/>
<path d="M35 57.37C34.9567 58.0502 34.6648 58.6908 34.18 59.17C33.918 59.4338 33.6064 59.6432 33.2632 59.7861C32.9199 59.929 32.5518 60.0025 32.18 60.0025C31.8082 60.0025 31.4401 59.929 31.0968 59.7861C30.7536 59.6432 30.442 59.4338 30.18 59.17L26.2687 55.2503C26.0674 55.0486 25.9544 54.7752 25.9546 54.4902C25.9547 54.2053 26.068 53.932 26.2695 53.7305C26.4712 53.5289 26.7449 53.4153 27.0301 53.4153C27.3152 53.4153 27.5887 53.5286 27.7903 53.7303L31.23 57.17C31.7227 57.6631 32.3805 57.9564 33.0766 57.9933C33.7727 58.0302 34.4579 57.8082 35 57.37Z" fill="#FFAB91"/>
<path d="M41.9998 56.37C41.9565 57.0502 41.6647 57.6908 41.1798 58.17C40.9179 58.4338 40.6063 58.6432 40.263 58.7861C39.9198 58.929 39.5516 59.0025 39.1798 59.0025C38.808 59.0025 38.4399 58.929 38.0967 58.7861C37.7534 58.6432 37.4418 58.4338 37.1798 58.17L32.2688 53.2503C32.0675 53.0486 31.9545 52.7752 31.9546 52.4902C31.9547 52.2052 32.068 51.9319 32.2695 51.7304C32.4712 51.5287 32.7447 51.4153 33.0299 51.4153C33.3151 51.4153 33.5886 51.5286 33.7902 51.7303L38.2298 56.17C38.7226 56.6631 39.3804 56.9564 40.0765 56.9933C40.7726 57.0302 41.4577 56.8082 41.9998 56.37Z" fill="#FFAB91"/>
<path d="M48.9998 55.37C48.9564 56.0502 48.6646 56.6908 48.1798 57.17C47.9178 57.4338 47.6062 57.6432 47.2629 57.7861C46.9197 57.9289 46.5516 58.0025 46.1798 58.0025C45.808 58.0025 45.4398 57.9289 45.0966 57.7861C44.7533 57.6432 44.4417 57.4338 44.1798 57.17L38.2689 51.2503C38.0675 51.0486 37.9545 50.7752 37.9546 50.4902C37.9547 50.2051 38.068 49.9318 38.2695 49.7303C38.4711 49.5286 38.7446 49.4153 39.0298 49.4153C39.315 49.4153 39.5884 49.5286 39.7901 49.7303L45.2298 55.17C45.7225 55.6631 46.3803 55.9564 47.0764 55.9933C47.7725 56.0302 48.4576 55.8082 48.9998 55.37Z" fill="#FFAB91"/>
<path d="M36.6619 34C36.1352 34 35.6136 34.104 35.1272 34.3062C34.6408 34.5083 34.199 34.8045 33.8274 35.1777L26.8036 42.2321C26.2891 42.7466 26 43.4445 26 44.1722C26 44.9 26.2891 45.5979 26.8036 46.1124L26.8538 46.1626C27.1161 46.4271 27.428 46.6372 27.7716 46.7808C28.1152 46.9245 28.4838 46.999 28.8563 47C29.2287 47.001 29.5977 46.9284 29.942 46.7865C30.2864 46.6446 30.5994 46.4362 30.863 46.1731C32.9318 44.1042 36.0042 41.0042 36.0042 41.0042L48 53H54V34H36.6619Z" fill="#FFAB91"/>
<path d="M56 31H59C58.4696 31 57.9609 31.2107 57.5858 31.5858C57.2107 31.9609 57 32.4696 57 33V51C57 51.5304 57.2107 52.0391 57.5858 52.4142C57.9609 52.7893 58.4696 53 59 53H61V56H56C55.4696 56 54.9609 55.7893 54.5858 55.4142C54.2107 55.0391 54 54.5304 54 54V33C54 32.4696 54.2107 31.9609 54.5858 31.5858C54.9609 31.2107 55.4696 31 56 31Z" fill="#355CE5"/>
<path d="M42 6.23401V10.043L50 16.304V12.495L42 6.23401Z" fill="#616161"/>
<path d="M38.9999 40V39.8447C39.0001 39.4488 38.8828 39.0618 38.6629 38.7326C38.4429 38.4034 38.1302 38.1469 37.7643 37.9957C37.3984 37.8444 36.9959 37.8052 36.6077 37.8829C36.2195 37.9607 35.8632 38.1519 35.5838 38.4324C33.4721 40.5536 30.962 43.074 29.8629 44.1731C29.3556 44.6777 28.6756 44.9706 27.9604 44.9926C27.2453 45.0146 26.5485 44.764 26.0112 44.2915C26.0369 44.9765 26.3198 45.6267 26.8035 46.1124L26.8536 46.1626C27.1159 46.427 27.4278 46.6371 27.7714 46.7808C28.115 46.9245 28.4836 46.999 28.8561 47C29.2285 47.0009 29.5975 46.9284 29.9419 46.7865C30.2862 46.6446 30.5992 46.4362 30.8629 46.1731C32.9317 44.1042 36.9999 40 36.9999 40C36.9999 41.3261 37.5266 42.5978 38.4643 43.5355C39.402 44.4732 40.6738 45 41.9999 45H44.9999C45.2651 45 45.5194 44.8946 45.707 44.7071C45.8945 44.5196 45.9999 44.2652 45.9999 44C45.9999 43.7348 45.8945 43.4804 45.707 43.2929C45.5194 43.1053 45.2651 43 44.9999 43H41.9999C41.2042 43 40.4412 42.6839 39.8785 42.1213C39.3159 41.5587 38.9999 40.7956 38.9999 40Z" fill="#FF8A65"/>
</svg>
