<svg width="58" height="58" viewBox="0 0 58 58" fill="none" xmlns="http://www.w3.org/2000/svg">
<path d="M3 42H45V46H3V42Z" fill="#5157EF"/>
<path d="M45 42V46H3V44H37C37.5304 44 38.0391 43.7893 38.4142 43.4142C38.7893 43.0391 39 42.5304 39 42H45Z" fill="#5157EF"/>
<path d="M24 0C23.3521 -8.84495e-07 22.7228 0.216971 22.2125 0.61631L0 18L2.81 21.58L24 5L45.19 21.58L48 18L25.7875 0.61631C25.2772 0.216971 24.6479 -8.84495e-07 24 0Z" fill="#5157EF"/>
<path d="M42 13.304V0H34V7.043L42 13.304Z" fill="#757575"/>
<path d="M42 19.08V42H6V19.08L24 5L42 19.08Z" fill="#EEEEEE"/>
<path d="M41.946 19.038L24 5L6 19.08V22.893L24 8.809L39 20.545V42H42V19.08L41.946 19.038Z" fill="#E0E0E0"/>
<path d="M37 33H26V24H37V33Z" fill="#64B5F6"/>
<path d="M37 24V33H26V30H30C31.0609 30 32.0783 29.5786 32.8284 28.8284C33.5786 28.0783 34 27.0609 34 26V24H37Z" fill="#42A5F5"/>
<path d="M11 24H21V42H11V24Z" fill="#757575"/>
<path d="M21 24V42H11V39H14C15.0609 39 16.0783 38.5786 16.8284 37.8284C17.5786 37.0783 18 36.0609 18 35V24H21Z" fill="#616161"/>
<path d="M42 58C50.8366 58 58 50.8366 58 42C58 33.1634 50.8366 26 42 26C33.1634 26 26 33.1634 26 42C26 50.8366 33.1634 58 42 58Z" fill="#FFD54F"/>
<path d="M58.0002 42C57.9988 44.605 57.3617 47.1703 56.1442 49.4734C54.9267 51.7764 53.1656 53.7475 51.0137 55.2156C48.8617 56.6837 46.384 57.6045 43.7956 57.898C41.2072 58.1915 38.5862 57.849 36.1602 56.9C36.7702 56.96 37.3802 57 38.0002 57C41.7282 56.9994 45.3391 55.6972 48.2094 53.3182C51.0797 50.9392 53.0294 47.6326 53.7217 43.9694C54.414 40.3062 53.8056 36.5162 52.0015 33.2538C50.1974 29.9913 47.3109 27.4611 43.8402 26.1C47.7393 26.5532 51.336 28.4233 53.9466 31.3547C56.5573 34.2861 57.9998 38.0746 58.0002 42Z" fill="#FFCA28"/>
<path d="M42 54C48.6274 54 54 48.6274 54 42C54 35.3726 48.6274 30 42 30C35.3726 30 30 35.3726 30 42C30 48.6274 35.3726 54 42 54Z" fill="#FFB74D"/>
<path d="M45.0001 53C42.2853 53.0018 39.6502 52.0823 37.5258 50.392C35.4013 48.7017 33.9133 46.3406 33.305 43.6948C32.6967 41.049 33.0042 38.2751 34.1771 35.8267C35.3499 33.3784 37.3189 31.4004 39.7619 30.2163C38.0804 30.532 36.4859 31.2038 35.0854 32.1865C33.685 33.1692 32.5109 34.4402 31.6421 35.914C30.7733 37.3879 30.2299 39.0306 30.0483 40.7318C29.8666 42.433 30.051 44.1533 30.5891 45.7774C31.1271 47.4015 32.0064 48.8916 33.1678 50.1479C34.3292 51.4041 35.7459 52.3974 37.3229 53.061C38.8998 53.7246 40.6004 54.0432 42.3106 53.9953C44.0208 53.9475 45.701 53.5344 47.2384 52.7837C46.5007 52.9255 45.7513 52.9979 45.0001 53Z" fill="#FFA726"/>
<path d="M42.0001 41C41.6046 41 41.2179 40.8827 40.889 40.6629C40.5601 40.4432 40.3037 40.1308 40.1524 39.7654C40.001 39.3999 39.9614 38.9978 40.0385 38.6098C40.1157 38.2219 40.3062 37.8655 40.5859 37.5858C40.8656 37.3061 41.222 37.1156 41.6099 37.0384C41.9979 36.9613 42.4 37.0009 42.7655 37.1522C43.1309 37.3036 43.4433 37.56 43.6631 37.8889C43.8828 38.2178 44.0001 38.6044 44.0001 39C44.0001 39.2652 44.1055 39.5196 44.293 39.7071C44.4805 39.8946 44.7349 40 45.0001 40C45.2653 40 45.5197 39.8946 45.7072 39.7071C45.8948 39.5196 46.0001 39.2652 46.0001 39C45.9974 38.1156 45.7015 37.2571 45.1586 36.559C44.6157 35.8608 43.8566 35.3625 43.0001 35.142V34C43.0001 33.7348 42.8948 33.4804 42.7072 33.2929C42.5197 33.1054 42.2653 33 42.0001 33C41.7349 33 41.4805 33.1054 41.293 33.2929C41.1055 33.4804 41.0001 33.7348 41.0001 34V35.142C40.0578 35.3836 39.2361 35.9611 38.6896 36.7659C38.143 37.5706 37.9091 38.5473 38.0319 39.5124C38.1548 40.4774 38.6258 41.3644 39.3565 42.0066C40.0872 42.6488 41.0273 43.0021 42.0001 43C42.3957 43 42.7824 43.1173 43.1113 43.3371C43.4402 43.5568 43.6965 43.8692 43.8479 44.2346C43.9992 44.6001 44.0389 45.0022 43.9617 45.3902C43.8845 45.7781 43.694 46.1345 43.4143 46.4142C43.1346 46.6939 42.7783 46.8844 42.3903 46.9616C42.0023 47.0387 41.6002 46.9991 41.2347 46.8478C40.8693 46.6964 40.5569 46.44 40.3372 46.1111C40.1174 45.7822 40.0001 45.3956 40.0001 45C40.0001 44.7348 39.8948 44.4804 39.7072 44.2929C39.5197 44.1054 39.2653 44 39.0001 44C38.7349 44 38.4805 44.1054 38.293 44.2929C38.1055 44.4804 38.0001 44.7348 38.0001 45C38.0028 45.8844 38.2987 46.7429 38.8416 47.441C39.3845 48.1392 40.1437 48.6375 41.0001 48.858V50C41.0001 50.2652 41.1055 50.5196 41.293 50.7071C41.4805 50.8946 41.7349 51 42.0001 51C42.2653 51 42.5197 50.8946 42.7072 50.7071C42.8948 50.5196 43.0001 50.2652 43.0001 50V48.858C43.9425 48.6164 44.7641 48.0389 45.3107 47.2341C45.8572 46.4294 46.0911 45.4527 45.9683 44.4876C45.8455 43.5226 45.3745 42.6356 44.6437 41.9934C43.913 41.3512 42.9729 40.9979 42.0001 41Z" fill="#EEEEEE"/>
<path d="M34 3.23401V7.04301L42 13.304V9.49501L34 3.23401Z" fill="#616161"/>
</svg>
