<svg width="64" height="64" viewBox="0 0 64 64" fill="none" xmlns="http://www.w3.org/2000/svg">
<g clip-path="url(#clip0_1_1917)">
<path d="M30.3304 63.9997C47.0814 63.9997 60.6608 50.4204 60.6608 33.6694C60.6608 16.9184 47.0814 3.33899 30.3304 3.33899C13.5794 3.33899 0 16.9184 0 33.6694C0 50.4204 13.5794 63.9997 30.3304 63.9997Z" fill="#5E63DD"/>
<path d="M60.6611 33.6693C60.6611 50.42 47.0811 64 30.3304 64C29.4961 64 28.6692 63.9657 27.8512 63.9003C43.4419 62.6392 55.7026 49.5856 55.7026 33.6693C55.7026 17.753 43.4418 4.69943 27.8511 3.43819C28.6691 3.37281 29.4959 3.33856 30.3303 3.33856C47.0811 3.33856 60.6611 16.9185 60.6611 33.6693Z" fill="#0030C3"/>
<path d="M30.3303 57.1725C43.3107 57.1725 53.8335 46.6498 53.8335 33.6694C53.8335 20.6889 43.3107 10.1662 30.3303 10.1662C17.3499 10.1662 6.82715 20.6889 6.82715 33.6694C6.82715 46.6498 17.3499 57.1725 30.3303 57.1725Z" fill="#EEF4F5"/>
<path d="M53.8331 33.6693C53.8331 46.6499 43.3109 57.1721 30.3303 57.1721C29.4929 57.1721 28.6661 57.129 27.8511 57.0428C39.6657 55.8039 48.8746 45.8127 48.8746 33.6693C48.8746 21.526 39.6658 11.5348 27.8511 10.2959C28.6661 10.2097 29.4929 10.1666 30.3303 10.1666C43.3109 10.1666 53.8331 20.6888 53.8331 33.6693Z" fill="#CBE5E7"/>
<path d="M30.3306 50.3451C39.5404 50.3451 47.0064 42.8791 47.0064 33.6693C47.0064 24.4595 39.5404 16.9935 30.3306 16.9935C21.1208 16.9935 13.6548 24.4595 13.6548 33.6693C13.6548 42.8791 21.1208 50.3451 30.3306 50.3451Z" fill="#5E63DD"/>
<path d="M47.0066 33.6693C47.0066 42.8798 39.5407 50.3457 30.3303 50.3457C29.4886 50.3457 28.6602 50.2832 27.8511 50.1628C35.8852 48.964 42.0468 42.0366 42.0468 33.6693C42.0468 25.3021 35.8852 18.3747 27.8511 17.1759C28.6601 17.0554 29.4886 16.993 30.3303 16.993C39.5407 16.9929 47.0066 24.4589 47.0066 33.6693Z" fill="#0030C3"/>
<path d="M30.3305 43.4461C35.73 43.4461 40.1072 39.0689 40.1072 33.6694C40.1072 28.2698 35.73 23.8926 30.3305 23.8926C24.9309 23.8926 20.5537 28.2698 20.5537 33.6694C20.5537 39.0689 24.9309 43.4461 30.3305 43.4461Z" fill="#EEF4F5"/>
<path d="M40.1076 33.6694C40.1076 39.0695 35.7306 43.4465 30.3305 43.4465C29.5274 43.4465 28.7466 43.3498 28 43.1669C32.2744 42.1214 35.4451 38.2664 35.4451 33.6694C35.4451 29.0723 32.2744 25.2174 28 24.1719C28.7466 23.9889 29.5274 23.8923 30.3305 23.8923C35.7307 23.8923 40.1076 28.2691 40.1076 33.6694Z" fill="#CBE5E7"/>
<path d="M30.3305 37.2342C32.2993 37.2342 33.8954 35.6382 33.8954 33.6694C33.8954 31.7005 32.2993 30.1045 30.3305 30.1045C28.3617 30.1045 26.7656 31.7005 26.7656 33.6694C26.7656 35.6382 28.3617 37.2342 30.3305 37.2342Z" fill="#5E63DD"/>
<path d="M33.8953 33.6694C33.8953 35.6385 32.2994 37.2342 30.3304 37.2342C29.7252 37.2342 29.154 37.084 28.6543 36.8164C30.1355 36.5352 31.2554 35.2325 31.2554 33.6694C31.2554 32.1062 30.1355 30.8035 28.6543 30.5224C29.154 30.2547 29.725 30.1045 30.3304 30.1045C32.2994 30.1044 33.8953 31.7002 33.8953 33.6694Z" fill="#0030C3"/>
<path d="M30.3306 34.6353C30.0834 34.6353 29.8362 34.5409 29.6477 34.3524C29.2704 33.9752 29.2704 33.3637 29.6477 32.9864L55.9923 6.64182C56.3694 6.26482 56.9809 6.26482 57.3582 6.64182C57.7354 7.01907 57.7354 7.63045 57.3582 8.00782L31.0136 34.3524C30.8249 34.5409 30.5778 34.6353 30.3306 34.6353Z" fill="#688D97"/>
<path d="M44.5139 6.98096C44.062 7.43284 43.8679 8.08171 43.9974 8.70746L45.9335 18.0665L49.1453 14.8547L47.7145 7.93859C47.4085 6.45971 45.5818 5.91309 44.5139 6.98096Z" fill="#31A7FB"/>
<path d="M47.7258 3.76921C47.274 4.22108 47.0798 4.86996 47.2093 5.49571L49.1455 14.8547L52.3572 11.643L50.9265 4.72671C50.6206 3.24783 48.7937 2.70133 47.7258 3.76921Z" fill="#A3E440"/>
<path d="M50.9377 0.557476C50.4859 1.00935 50.2917 1.65823 50.4212 2.28398L52.3574 11.643L55.5691 8.43123L54.1382 1.51498C53.8324 0.0361006 52.0055 -0.510399 50.9377 0.557476Z" fill="#31A7FB"/>
<path d="M57.0191 19.4861C56.5672 19.9379 55.9183 20.1321 55.2926 20.0026L45.9336 18.0664L49.1453 14.8547L56.0615 16.2854C57.5403 16.5914 58.087 18.4182 57.0191 19.4861Z" fill="#1C96F9"/>
<path d="M60.231 16.2743C59.7791 16.7262 59.1303 16.9203 58.5045 16.7908L49.1455 14.8547L52.3573 11.6429L59.2735 13.0737C60.7524 13.3796 61.2989 15.2064 60.231 16.2743Z" fill="#8DC637"/>
<path d="M63.4424 13.0625C62.9906 13.5143 62.3417 13.7085 61.7159 13.579L52.3569 11.6428L55.5687 8.43109L62.4848 9.86184C63.9638 10.1678 64.5103 11.9947 63.4424 13.0625Z" fill="#1C96F9"/>
</g>
<defs>
<clipPath id="clip0_1_1917">
<rect width="64" height="64" fill="white"/>
</clipPath>
</defs>
</svg>
