<svg width="40" height="40" viewBox="0 0 40 40" fill="none" xmlns="http://www.w3.org/2000/svg">
<path d="M20 40C31.0457 40 40 31.0457 40 20C40 8.95431 31.0457 0 20 0C8.9543 0 0 8.95431 0 20C0 31.0457 8.9543 40 20 40Z" fill="url(#paint0_linear_1_4099)"/>
<path fill-rule="evenodd" clip-rule="evenodd" d="M29.1543 23.7678C28.1232 23.1491 26.7974 22.4715 25.619 22.9723C24.7056 23.3553 24.1164 24.7989 23.5272 25.5355C23.2325 25.9185 22.8495 25.9774 22.3782 25.7712C18.9312 24.3865 16.2796 22.0885 14.3646 18.9066C14.0405 18.4058 14.0995 18.0228 14.4825 17.5514C15.0717 16.8738 15.7788 16.1077 15.9261 15.1944C16.0734 14.2811 15.6609 13.2205 15.2779 12.3956C14.8065 11.3644 14.2468 9.8619 13.2156 9.27267C12.2434 8.74236 11.006 9.03696 10.1516 9.71458C8.67853 10.9225 7.97142 12.7786 8.00088 14.6641C8.00088 15.1944 8.05983 15.7248 8.20714 16.2256C8.50175 17.463 9.06151 18.612 9.70966 19.7021C10.181 20.527 10.7114 21.3225 11.2711 22.0885C13.1272 24.5927 15.4252 26.7729 18.0768 28.4227C19.4026 29.2476 20.8461 29.9547 22.3192 30.4555C23.9691 31.0153 25.4716 31.5751 27.2688 31.2216C29.1543 30.868 31.0104 29.6896 31.747 27.8924C31.9532 27.3621 32.071 26.7434 31.9532 26.1836C31.688 25.0346 30.0971 24.357 29.1543 23.7678Z" fill="white"/>
<defs>
<linearGradient id="paint0_linear_1_4099" x1="11.6563" y1="39.5913" x2="-10.123" y2="10.8418" gradientUnits="userSpaceOnUse">
<stop stop-color="#171B2E"/>
<stop offset="1" stop-color="#2D3E85"/>
</linearGradient>
</defs>
</svg>
