<svg width="171" height="50" viewBox="0 0 171 50" fill="none" xmlns="http://www.w3.org/2000/svg">
<path d="M33.4895 44.8202H32.9707V44.5004H34.3885V44.8202H33.8697V46.2305H33.4895V44.8202Z" fill="#003CC3"/>
<path d="M34.5859 44.5004H35.1217L35.5263 45.6901H35.5309L35.914 44.5004H36.4494V46.2305H36.0934V45.0046H36.0882L35.6647 46.2305H35.371L34.9471 45.0166H34.9423V46.2305H34.5859V44.5004Z" fill="#003CC3"/>
<path d="M21.0282 43.6388V40.3696L31.3908 31.0391L33.206 32.6735L21.0282 43.6388ZM17.623 43.6388L5.44525 32.6735L7.26077 31.0391L17.623 40.3696V43.6388ZM23.7845 25.9933C22.648 27.0165 21.1369 27.58 19.5299 27.58C17.9232 27.58 16.4124 27.0165 15.2756 25.9933L14.2732 25.0927L15.2756 24.1901C17.621 22.0783 21.4391 22.0783 23.7845 24.1901L24.7869 25.0927L23.7845 25.9933ZM5.64952 17.3258L17.8273 6.36058V9.63008L7.46504 18.9606L5.64952 17.3258ZM21.2325 6.36058L33.4106 17.3258L31.5951 18.9606L21.2325 9.63008V6.36058ZM32.5948 27.7872L28.1937 23.8244L28.1931 23.825L26.1916 22.0229C22.5181 18.7152 16.5397 18.7152 12.8662 22.0229L11.8661 22.9234L11.8658 22.9238L9.87376 21.1301L9.87409 21.1298L19.5299 12.4336L30.3907 22.2128L34.3813 25.806C35.711 27.0031 37.8668 27.0031 39.1972 25.806L34.0041 21.1301L34.0044 21.1298L38.2245 17.3278L21.2325 2.02408L19.5299 0.491142L17.8273 2.02408L0.833038 17.3278L6.26035 22.2124L6.864 22.7557L10.6618 26.1757L12.8662 28.1605C14.6455 29.7626 17.0122 30.6463 19.5299 30.6463C22.0456 30.6463 24.4123 29.7626 26.1916 28.1605L27.192 27.2599L27.193 27.2593L28.9827 28.8709L28.9818 28.8715L19.3256 37.5661L8.46514 27.7869L7.946 27.3203L4.81517 24.5014C3.48551 23.3042 1.32966 23.3042 0 24.5014L4.85368 28.8719L0.631059 32.6735L17.623 47.9753L19.3256 49.5085L21.0282 47.9753L38.0202 32.6735L32.5942 27.7879L32.5948 27.7872Z" fill="#003CC3"/>
<path d="M58.8341 15.5839C61.1756 16.9625 63.5791 18.3985 63.5791 21.156C63.5791 24.2007 60.6761 26.2688 56.8362 26.2688C54.9632 26.2688 52.5594 25.6945 51.8412 25.1199C51.6539 25.005 51.529 24.9189 51.529 24.5743L51.4353 20.0071C51.404 19.8349 51.7166 19.8061 51.7789 19.9497C53.059 22.3624 54.682 25.5506 57.6477 25.5506C59.084 25.5506 60.5198 24.9763 60.5198 22.8221C60.5198 20.122 58.2412 18.7721 56.0247 17.4222C53.8391 16.1007 51.6852 14.837 51.6852 12.2804C51.6852 9.06378 55.1192 7.65613 58.2412 7.65613C59.7393 7.65613 61.3939 7.94327 62.2681 8.28817C62.674 8.46045 62.7363 8.63274 62.7363 8.86245V13.0847C62.7363 13.1996 62.4554 13.2861 62.3927 13.1709C61.8935 12.2233 60.7384 8.28817 57.3981 8.28817C55.8371 8.28817 54.5573 9.12088 54.5573 10.8731C54.5573 13.056 56.6489 14.2914 58.8341 15.5839Z" fill="#003CC3"/>
<path d="M87.7623 21.4149C87.606 22.5351 87.45 24.2011 87.45 25.4936C87.45 25.8095 87.3564 25.9243 86.9818 25.9243H73.1833C73.0587 25.9243 73.0587 25.5797 73.1833 25.5797C75.0879 25.5797 75.3999 25.2639 75.3999 23.5978V10.2989C75.3999 8.66187 75.0879 8.31697 73.1833 8.31697C73.0587 8.31697 73.0587 7.9724 73.1833 7.9724H86.4199C86.6695 7.9724 86.7322 8.05855 86.7322 8.23083L86.7945 12.0511C86.7945 12.1373 86.4822 12.1947 86.4199 12.0798C85.7331 9.83915 84.2034 8.80511 81.6122 8.80511H80.6758C79.427 8.80511 78.8651 9.29358 78.8651 10.3276V16.1873H81.4563C83.9224 16.1873 85.2022 15.3542 85.2022 14.0043C85.2022 13.8895 85.5458 13.8895 85.5458 14.0043C85.5458 15.2681 85.5144 15.8137 85.5144 16.5893C85.5144 17.5659 85.6081 18.4276 85.6081 19.5191C85.6081 19.6052 85.2335 19.6052 85.2335 19.5191C85.2335 17.9682 83.9224 16.9916 81.425 16.9916H78.8651V23.483C78.8651 24.6031 79.3021 25.12 80.3012 25.12H81.3313C84.578 25.12 86.4822 23.9427 87.3877 21.3575C87.4187 21.2426 87.7623 21.3287 87.7623 21.4149Z" fill="#003CC3"/>
<path d="M111.945 21.4149C111.789 22.5351 111.633 24.2011 111.633 25.4936C111.633 25.8095 111.539 25.9243 111.164 25.9243H97.3659C97.2413 25.9243 97.2413 25.5797 97.3659 25.5797C99.2705 25.5797 99.5825 25.2639 99.5825 23.5978V10.2989C99.5825 8.66187 99.2705 8.31697 97.3659 8.31697C97.2413 8.31697 97.2413 7.9724 97.3659 7.9724H110.603C110.852 7.9724 110.915 8.05855 110.915 8.23083L110.977 12.0511C110.977 12.1373 110.665 12.1947 110.603 12.0798C109.916 9.83915 108.386 8.80511 105.795 8.80511H104.858C103.61 8.80511 103.048 9.29358 103.048 10.3276V16.1873H105.639C108.105 16.1873 109.385 15.3542 109.385 14.0043C109.385 13.8895 109.728 13.8895 109.728 14.0043C109.728 15.2681 109.697 15.8137 109.697 16.5893C109.697 17.5659 109.791 18.4276 109.791 19.5191C109.791 19.6052 109.416 19.6052 109.416 19.5191C109.416 17.9682 108.105 16.9916 105.608 16.9916H103.048V23.483C103.048 24.6031 103.485 25.12 104.484 25.12H105.514C108.761 25.12 110.665 23.9427 111.57 21.3575C111.601 21.2426 111.945 21.3287 111.945 21.4149Z" fill="#003CC3"/>
<path d="M143.409 8.3174C141.755 8.3174 140.724 9.60987 140.724 11.6492V26.3555C140.724 26.4703 140.443 26.4994 140.381 26.4416L125.74 11.1037V22.2767C125.74 24.3161 126.707 25.5802 128.331 25.5802C128.424 25.5802 128.424 25.9247 128.331 25.9247C127.426 25.9247 126.458 25.8673 125.303 25.8673C124.054 25.8673 122.837 25.9247 121.838 25.9247C121.713 25.9247 121.713 25.5802 121.838 25.5802C123.648 25.5802 124.803 24.3161 124.803 22.2767V10.1267C123.399 8.7194 122.524 8.3174 121.526 8.3174C121.432 8.3174 121.432 7.97251 121.526 7.97251C122.337 7.97251 123.274 8.03026 124.023 8.03026C125.521 8.03026 126.801 7.97251 127.457 7.97251C127.988 7.97251 128.019 8.37483 129.018 9.4663L139.819 20.9268V11.6492C139.819 9.60987 138.851 8.3174 137.228 8.3174C137.134 8.3174 137.134 7.97251 137.228 7.97251C138.133 7.97251 139.101 8.05897 140.256 8.05897C141.38 8.05897 142.504 7.97251 143.409 7.97251C143.503 7.97251 143.503 8.3174 143.409 8.3174Z" fill="#003CC3"/>
<path d="M52.1736 40.3438V34.2287H54.2398C54.7175 34.2287 55.1097 34.3103 55.4162 34.4736C55.7228 34.6348 55.9497 34.8567 56.097 35.1394C56.2443 35.4221 56.318 35.7435 56.318 36.1038C56.318 36.4641 56.2443 36.7836 56.097 37.0623C55.9497 37.341 55.7238 37.5599 55.4192 37.7192C55.1147 37.8764 54.7255 37.9551 54.2518 37.9551H52.5797V37.2862H54.2279C54.5543 37.2862 54.8171 37.2385 55.0161 37.1429C55.2172 37.0474 55.3625 36.912 55.4521 36.7368C55.5436 36.5597 55.5894 36.3487 55.5894 36.1038C55.5894 35.859 55.5436 35.645 55.4521 35.4619C55.3605 35.2787 55.2142 35.1374 55.0131 35.0379C54.8121 34.9364 54.5464 34.8856 54.2159 34.8856H52.9141V40.3438H52.1736ZM55.052 37.5968L56.5568 40.3438H55.6969L54.2159 37.5968H55.052ZM57.5519 40.3438V34.2287H61.2424V34.8856H58.2924V36.9518H61.0513V37.6087H58.2924V39.6869H61.2902V40.3438H57.5519ZM62.8279 40.3438H62.0516L64.2969 34.2287H65.0613L67.3067 40.3438H66.5303L64.703 35.1961H64.6552L62.8279 40.3438ZM63.1145 37.9551H66.2437V38.612H63.1145V37.9551ZM68.2592 40.3438V34.2287H68.9997V39.6869H71.8422V40.3438H68.2592ZM75.3536 40.3438V34.2287H79.0441V34.8856H76.094V36.9518H78.853V37.6087H76.094V39.6869H79.0919V40.3438H75.3536ZM83.7229 35.7575C83.6871 35.4549 83.5418 35.22 83.287 35.0528C83.0322 34.8856 82.7197 34.802 82.3494 34.802C82.0787 34.802 81.8418 34.8458 81.6388 34.9334C81.4377 35.021 81.2805 35.1414 81.167 35.2947C81.0555 35.4479 80.9998 35.6221 80.9998 35.8172C80.9998 35.9804 81.0386 36.1208 81.1163 36.2382C81.1959 36.3536 81.2974 36.4502 81.4208 36.5278C81.5442 36.6035 81.6736 36.6662 81.809 36.7159C81.9443 36.7637 82.0687 36.8025 82.1822 36.8324L82.8033 36.9996C82.9625 37.0414 83.1397 37.0991 83.3348 37.1728C83.5318 37.2464 83.7199 37.3469 83.8991 37.4743C84.0802 37.5997 84.2295 37.761 84.347 37.958C84.4644 38.1551 84.5231 38.397 84.5231 38.6836C84.5231 39.014 84.4365 39.3126 84.2634 39.5794C84.0922 39.8461 83.8414 40.0581 83.5109 40.2154C83.1825 40.3726 82.7834 40.4512 82.3136 40.4512C81.8757 40.4512 81.4965 40.3806 81.176 40.2392C80.8575 40.0979 80.6067 39.9008 80.4235 39.648C80.2424 39.3952 80.1399 39.1016 80.116 38.7672H80.8804C80.9003 38.9981 80.9779 39.1892 81.1133 39.3405C81.2506 39.4898 81.4238 39.6013 81.6328 39.6749C81.8438 39.7466 82.0707 39.7824 82.3136 39.7824C82.5962 39.7824 82.85 39.7366 83.075 39.6451C83.2999 39.5515 83.4781 39.4221 83.6095 39.2569C83.7408 39.0897 83.8065 38.8946 83.8065 38.6717C83.8065 38.4686 83.7498 38.3034 83.6363 38.176C83.5229 38.0486 83.3736 37.9451 83.1884 37.8655C83.0033 37.7859 82.8033 37.7162 82.5883 37.6565L81.8359 37.4415C81.3581 37.3041 80.9799 37.1081 80.7012 36.8533C80.4225 36.5985 80.2832 36.2651 80.2832 35.853C80.2832 35.5106 80.3758 35.2121 80.5609 34.9573C80.748 34.7005 80.9988 34.5014 81.3133 34.3601C81.6298 34.2168 81.9832 34.1451 82.3733 34.1451C82.7674 34.1451 83.1178 34.2158 83.4243 34.3571C83.7309 34.4964 83.9737 34.6875 84.1529 34.9304C84.334 35.1732 84.4296 35.4489 84.4395 35.7575H83.7229ZM85.4062 34.8856V34.2287H89.9925V34.8856H88.0696V40.3438H87.3291V34.8856H85.4062ZM90.6718 40.3438H89.8954L92.1408 34.2287H92.9052L95.1505 40.3438H94.3742L92.5469 35.1961H92.4991L90.6718 40.3438ZM90.9584 37.9551H94.0876V38.612H90.9584V37.9551ZM95.0542 34.8856V34.2287H99.6405V34.8856H97.7176V40.3438H96.9771V34.8856H95.0542ZM100.783 40.3438V34.2287H104.474V34.8856H101.524V36.9518H104.283V37.6087H101.524V39.6869H104.522V40.3438H100.783ZM113.094 36.1397H112.354C112.31 35.9267 112.233 35.7396 112.124 35.5783C112.016 35.4171 111.885 35.2817 111.73 35.1722C111.576 35.0608 111.406 34.9772 111.219 34.9214C111.032 34.8657 110.837 34.8378 110.634 34.8378C110.263 34.8378 109.928 34.9314 109.627 35.1185C109.329 35.3056 109.091 35.5813 108.914 35.9456C108.739 36.3099 108.651 36.7567 108.651 37.2862C108.651 37.8157 108.739 38.2626 108.914 38.6269C109.091 38.9912 109.329 39.2669 109.627 39.454C109.928 39.6411 110.263 39.7346 110.634 39.7346C110.837 39.7346 111.032 39.7068 111.219 39.651C111.406 39.5953 111.576 39.5127 111.73 39.4032C111.885 39.2917 112.016 39.1554 112.124 38.9941C112.233 38.8309 112.31 38.6438 112.354 38.4328H113.094C113.038 38.7453 112.937 39.025 112.789 39.2718C112.642 39.5187 112.459 39.7287 112.24 39.9018C112.021 40.073 111.775 40.2034 111.503 40.293C111.232 40.3826 110.942 40.4274 110.634 40.4274C110.112 40.4274 109.648 40.3 109.242 40.0452C108.836 39.7904 108.517 39.4281 108.284 38.9583C108.051 38.4885 107.934 37.9312 107.934 37.2862C107.934 36.6413 108.051 36.0839 108.284 35.6142C108.517 35.1444 108.836 34.7821 109.242 34.5273C109.648 34.2725 110.112 34.1451 110.634 34.1451C110.942 34.1451 111.232 34.1899 111.503 34.2795C111.775 34.369 112.021 34.5004 112.24 34.6736C112.459 34.8448 112.642 35.0538 112.789 35.3006C112.937 35.5455 113.038 35.8252 113.094 36.1397ZM119.45 37.2862C119.45 37.9312 119.334 38.4885 119.101 38.9583C118.868 39.4281 118.548 39.7904 118.142 40.0452C117.736 40.3 117.273 40.4274 116.751 40.4274C116.229 40.4274 115.766 40.3 115.36 40.0452C114.953 39.7904 114.634 39.4281 114.401 38.9583C114.168 38.4885 114.052 37.9312 114.052 37.2862C114.052 36.6413 114.168 36.0839 114.401 35.6142C114.634 35.1444 114.953 34.7821 115.36 34.5273C115.766 34.2725 116.229 34.1451 116.751 34.1451C117.273 34.1451 117.736 34.2725 118.142 34.5273C118.548 34.7821 118.868 35.1444 119.101 35.6142C119.334 36.0839 119.45 36.6413 119.45 37.2862ZM118.734 37.2862C118.734 36.7567 118.645 36.3099 118.468 35.9456C118.293 35.5813 118.055 35.3056 117.754 35.1185C117.456 34.9314 117.121 34.8378 116.751 34.8378C116.381 34.8378 116.045 34.9314 115.745 35.1185C115.446 35.3056 115.208 35.5813 115.031 35.9456C114.856 36.3099 114.768 36.7567 114.768 37.2862C114.768 37.8157 114.856 38.2626 115.031 38.6269C115.208 38.9912 115.446 39.2669 115.745 39.454C116.045 39.6411 116.381 39.7346 116.751 39.7346C117.121 39.7346 117.456 39.6411 117.754 39.454C118.055 39.2669 118.293 38.9912 118.468 38.6269C118.645 38.2626 118.734 37.8157 118.734 37.2862ZM125.544 34.2287V40.3438H124.828L121.496 35.5425H121.436V40.3438H120.695V34.2287H121.412L124.756 39.0419H124.816V34.2287H125.544ZM130.37 35.7575C130.334 35.4549 130.189 35.22 129.934 35.0528C129.679 34.8856 129.367 34.802 128.997 34.802C128.726 34.802 128.489 34.8458 128.286 34.9334C128.085 35.021 127.928 35.1414 127.814 35.2947C127.703 35.4479 127.647 35.6221 127.647 35.8172C127.647 35.9804 127.686 36.1208 127.764 36.2382C127.843 36.3536 127.945 36.4502 128.068 36.5278C128.192 36.6035 128.321 36.6662 128.456 36.7159C128.592 36.7637 128.716 36.8025 128.83 36.8324L129.451 36.9996C129.61 37.0414 129.787 37.0991 129.982 37.1728C130.179 37.2464 130.367 37.3469 130.546 37.4743C130.728 37.5997 130.877 37.761 130.994 37.958C131.112 38.1551 131.17 38.397 131.17 38.6836C131.17 39.014 131.084 39.3126 130.911 39.5794C130.739 39.8461 130.489 40.0581 130.158 40.2154C129.83 40.3726 129.431 40.4512 128.961 40.4512C128.523 40.4512 128.144 40.3806 127.823 40.2392C127.505 40.0979 127.254 39.9008 127.071 39.648C126.89 39.3952 126.787 39.1016 126.763 38.7672H127.528C127.548 38.9981 127.625 39.1892 127.761 39.3405C127.898 39.4898 128.071 39.6013 128.28 39.6749C128.491 39.7466 128.718 39.7824 128.961 39.7824C129.244 39.7824 129.497 39.7366 129.722 39.6451C129.947 39.5515 130.125 39.4221 130.257 39.2569C130.388 39.0897 130.454 38.8946 130.454 38.6717C130.454 38.4686 130.397 38.3034 130.284 38.176C130.17 38.0486 130.021 37.9451 129.836 37.8655C129.651 37.7859 129.451 37.7162 129.236 37.6565L128.483 37.4415C128.005 37.3041 127.627 37.1081 127.349 36.8533C127.07 36.5985 126.931 36.2651 126.931 35.853C126.931 35.5106 127.023 35.2121 127.208 34.9573C127.395 34.7005 127.646 34.5014 127.961 34.3601C128.277 34.2168 128.63 34.1451 129.021 34.1451C129.415 34.1451 129.765 34.2158 130.072 34.3571C130.378 34.4964 130.621 34.6875 130.8 34.9304C130.981 35.1732 131.077 35.4489 131.087 35.7575H130.37ZM136.401 34.2287H137.141V38.2775C137.141 38.6956 137.043 39.0688 136.846 39.3972C136.651 39.7237 136.375 39.9815 136.019 40.1706C135.662 40.3577 135.244 40.4512 134.765 40.4512C134.285 40.4512 133.867 40.3577 133.511 40.1706C133.154 39.9815 132.878 39.7237 132.681 39.3972C132.485 39.0688 132.388 38.6956 132.388 38.2775V34.2287H133.128V38.2178C133.128 38.5164 133.194 38.7821 133.325 39.015C133.457 39.2459 133.644 39.4281 133.887 39.5615C134.132 39.6928 134.424 39.7585 134.765 39.7585C135.105 39.7585 135.398 39.6928 135.642 39.5615C135.887 39.4281 136.074 39.2459 136.204 39.015C136.335 38.7821 136.401 38.5164 136.401 38.2178V34.2287ZM138.62 40.3438V34.2287H139.361V39.6869H142.203V40.3438H138.62ZM142.202 34.8856V34.2287H146.789V34.8856H144.866V40.3438H144.125V34.8856H142.202ZM147.468 40.3438H146.692L148.937 34.2287H149.701L151.947 40.3438H151.17L149.343 35.1961H149.295L147.468 40.3438ZM147.755 37.9551H150.884V38.612H147.755V37.9551ZM157.748 34.2287V40.3438H157.032L153.699 35.5425H153.64V40.3438H152.899V34.2287H153.616L156.96 39.0419H157.02V34.2287H157.748ZM164.151 36.1397H163.41C163.366 35.9267 163.29 35.7396 163.18 35.5783C163.073 35.4171 162.941 35.2817 162.786 35.1722C162.633 35.0608 162.463 34.9772 162.276 34.9214C162.088 34.8657 161.893 34.8378 161.69 34.8378C161.32 34.8378 160.985 34.9314 160.684 35.1185C160.386 35.3056 160.148 35.5813 159.971 35.9456C159.795 36.3099 159.708 36.7567 159.708 37.2862C159.708 37.8157 159.795 38.2626 159.971 38.6269C160.148 38.9912 160.386 39.2669 160.684 39.454C160.985 39.6411 161.32 39.7346 161.69 39.7346C161.893 39.7346 162.088 39.7068 162.276 39.651C162.463 39.5953 162.633 39.5127 162.786 39.4032C162.941 39.2917 163.073 39.1554 163.18 38.9941C163.29 38.8309 163.366 38.6438 163.41 38.4328H164.151C164.095 38.7453 163.993 39.025 163.846 39.2718C163.699 39.5187 163.516 39.7287 163.297 39.9018C163.078 40.073 162.832 40.2034 162.559 40.293C162.289 40.3826 161.999 40.4274 161.69 40.4274C161.169 40.4274 160.705 40.3 160.299 40.0452C159.893 39.7904 159.573 39.4281 159.341 38.9583C159.108 38.4885 158.991 37.9312 158.991 37.2862C158.991 36.6413 159.108 36.0839 159.341 35.6142C159.573 35.1444 159.893 34.7821 160.299 34.5273C160.705 34.2725 161.169 34.1451 161.69 34.1451C161.999 34.1451 162.289 34.1899 162.559 34.2795C162.832 34.369 163.078 34.5004 163.297 34.6736C163.516 34.8448 163.699 35.0538 163.846 35.3006C163.993 35.5455 164.095 35.8252 164.151 36.1397ZM164.822 34.2287H165.67L167.366 37.0832H167.437L169.133 34.2287H169.981L167.772 37.8237V40.3438H167.031V37.8237L164.822 34.2287Z" fill="#003CC3"/>
</svg>
