<svg width="64" height="64" viewBox="0 0 64 64" fill="none" xmlns="http://www.w3.org/2000/svg">
<g clip-path="url(#clip0_1_1961)">
<path fill-rule="evenodd" clip-rule="evenodd" d="M37.2614 5.36088C40.8491 6.0655 44.1828 7.47762 47.1126 9.4445L52.3661 7.11125L56.8886 11.6336L54.5561 16.8855C56.5239 19.8156 57.9356 23.1506 58.6404 26.7389L64 28.802V35.1978L58.6391 37.2614C57.9345 40.8491 56.5224 44.1828 54.5555 47.1126L56.8886 52.3661L52.3662 56.8887L47.1144 54.5561C44.1842 56.5239 40.8493 57.9356 37.261 58.6404L35.198 64H28.8022L26.7386 58.6391C23.151 57.9345 19.8174 56.5224 16.8875 54.5555L11.6339 56.8887L7.11137 52.3662L9.44388 47.1144C7.476 44.1842 6.0645 40.8493 5.35962 37.2609L0 35.1979V28.8021L5.3605 26.7388C6.065 23.1508 7.477 19.8166 9.44425 16.887L7.11137 11.6339L11.6337 7.11137L16.8871 9.44462C19.8171 7.47775 23.1508 6.06563 26.7385 5.361L28.8021 0H35.1979L37.2614 5.36088ZM32 13.4607C21.761 13.4607 13.4607 21.761 13.4607 32C13.4607 42.2389 21.761 50.5392 32 50.5392C42.2389 50.5392 50.5392 42.2389 50.5392 32C50.5392 21.7611 42.2389 13.4607 32 13.4607Z" fill="url(#paint0_linear_1_1961)"/>
<path fill-rule="evenodd" clip-rule="evenodd" d="M37.2615 5.36088C40.8493 6.0655 44.1829 7.47762 47.1128 9.4445L52.3662 7.11125L56.8888 11.6336L54.5563 16.8855C56.524 19.8156 57.9357 23.1506 58.6405 26.7389L64.0001 28.802V35.1978L58.6393 37.2614C57.9346 40.8491 56.5225 44.1828 54.5556 47.1126L56.8888 52.3661L52.3664 56.8887L47.1145 54.5561C44.1844 56.5239 40.8494 57.9356 37.2611 58.6404L35.1981 64H32V50.5392H32.0001C42.239 50.5392 50.5394 42.2389 50.5394 32C50.5394 21.761 42.239 13.4607 32.0001 13.4607H32V0H35.1979L37.2615 5.36088Z" fill="url(#paint1_linear_1_1961)"/>
<path fill-rule="evenodd" clip-rule="evenodd" d="M42.4545 30.0979L27.8164 40.733V59.4955C27.8164 61.9728 29.8433 63.9996 32.3205 63.9996H52.5887C55.0659 63.9996 57.0928 61.9728 57.0928 59.4955V40.733L42.4545 30.0979Z" fill="#ECEFF1"/>
<path fill-rule="evenodd" clip-rule="evenodd" d="M42.4546 63.9997H52.5886C55.0658 63.9997 57.0927 61.9728 57.0927 59.4955V40.733L42.4546 30.0978V63.9997Z" fill="#E1E4E6"/>
<path fill-rule="evenodd" clip-rule="evenodd" d="M25.908 43.5533C24.4994 44.574 22.5299 44.2595 21.5091 42.8509C20.4884 41.4423 20.8029 39.4728 22.2115 38.452L40.6066 25.0872C41.757 24.2535 43.2815 24.3107 44.3578 25.1268L62.6981 38.452C64.1068 39.4728 64.4212 41.4423 63.4005 42.8509C62.3798 44.2595 60.4103 44.574 59.0016 43.5533L42.4548 31.5313L25.908 43.5533Z" fill="#4266D4"/>
<path fill-rule="evenodd" clip-rule="evenodd" d="M42.4546 24.4879C43.1328 24.4885 43.8043 24.7074 44.3575 25.1269L62.6978 38.452C64.1065 39.4728 64.421 41.4423 63.4002 42.8509C62.3795 44.2595 60.41 44.574 59.0013 43.5533L42.4546 31.5313V24.4879Z" fill="#5157EF"/>
<path fill-rule="evenodd" clip-rule="evenodd" d="M44.7019 46.7715H40.2076C39.0422 46.7715 38.0889 47.7249 38.0889 48.8901V63.9996H46.8205V48.8901C46.8206 47.7249 45.8671 46.7715 44.7019 46.7715Z" fill="#F1BA84"/>
<path fill-rule="evenodd" clip-rule="evenodd" d="M44.7017 46.7715H42.4546V63.9997H46.8203V48.8901C46.8205 47.7249 45.867 46.7715 44.7017 46.7715Z" fill="#DE9252"/>
</g>
<defs>
<linearGradient id="paint0_linear_1_1961" x1="18.65" y1="63.3462" x2="-16.1969" y2="17.3469" gradientUnits="userSpaceOnUse">
<stop stop-color="#171B2E"/>
<stop offset="1" stop-color="#2D3E85"/>
</linearGradient>
<linearGradient id="paint1_linear_1_1961" x1="41.325" y1="63.3462" x2="8.04066" y2="41.3777" gradientUnits="userSpaceOnUse">
<stop stop-color="#171B2E"/>
<stop offset="1" stop-color="#2D3E85"/>
</linearGradient>
<clipPath id="clip0_1_1961">
<rect width="64" height="64" fill="white"/>
</clipPath>
</defs>
</svg>
