<svg width="64" height="64" viewBox="0 0 64 64" fill="none" xmlns="http://www.w3.org/2000/svg">
<path d="M57.3416 62.4001L51.4755 36.269H48.8091L54.8086 62.9333C54.9419 63.3333 55.0752 63.5999 55.3419 63.7333C55.6086 63.8666 55.7418 63.8666 56.0085 63.8666C56.1418 63.8666 56.1418 63.8666 56.2751 63.8666C57.0749 63.8666 57.4748 63.0667 57.3416 62.4001Z" fill="#344A5E"/>
<path d="M34.5435 36.1358L28.6774 62.4001C28.5441 63.0667 28.944 63.7334 29.6107 63.8666C29.7441 63.8666 29.7441 63.8666 29.8773 63.8666C30.1439 63.8666 30.4106 63.8666 30.5439 63.7333C30.8105 63.5999 31.0772 63.1999 31.0772 62.9333L37.0767 36.0023H34.5435V36.1358Z" fill="#344A5E"/>
<path d="M42.0094 36.269L41.4761 60.1336C41.4761 60.8001 42.0094 61.4668 42.676 61.4668C43.3425 61.4668 43.8759 60.9335 44.0092 60.2669L44.5426 36.269H42.0094Z" fill="#344A5E"/>
<path d="M28.944 3.73865L58.6746 4.53858L57.8747 38.1356L28.144 37.2023L28.944 3.73865Z" fill="#E8EAE9"/>
<path d="M60.4079 3.73866C60.4079 4.13862 60.2745 4.53859 59.8746 4.80519C59.608 5.20516 59.208 5.33852 58.808 5.33852L28.944 4.40523C28.5441 4.40523 28.1441 4.27186 27.8775 3.8719C27.6109 3.6053 27.4775 3.20533 27.4775 2.672C27.4775 1.73871 28.2775 1.07214 29.0774 1.07214L58.8082 2.00544C59.7413 2.1388 60.4079 2.93873 60.4079 3.73866Z" fill="#5157EF"/>
<path d="M59.4748 39.0689C59.4748 39.4688 59.3414 39.8688 58.9415 40.1354C58.6749 40.402 58.2749 40.5354 57.8749 40.5354L28.0109 39.7354C27.611 39.7354 27.211 39.6021 26.9444 39.2021C26.6778 38.9355 26.5444 38.5355 26.5444 38.0022C26.5444 37.0689 27.3444 36.4023 28.1443 36.4023L57.8751 37.3356C58.8082 37.469 59.4748 38.2689 59.4748 39.0689Z" fill="#5157EF"/>
<path d="M20.0114 5.60511C19.8781 6.13843 19.4781 6.5384 19.2115 6.5384C18.9449 6.40504 18.8115 6.00507 18.9449 5.47187C19.0783 4.93866 19.4782 4.53857 19.7448 4.53857C20.1448 4.53857 20.278 5.07178 20.0114 5.60511Z" fill="#FFD15C"/>
<path d="M13.612 5.60505C13.7454 6.13837 14.1453 6.53834 14.4119 6.53834C14.8119 6.40498 14.8119 5.87177 14.6785 5.33844C14.5452 4.80512 14.1452 4.40515 13.8786 4.40515C13.4786 4.53851 13.4786 5.07172 13.612 5.60505Z" fill="#FFD15C"/>
<path d="M13.3455 10.0047L14.812 8.67145C14.812 8.67145 14.4121 7.07159 14.4121 6.67163C14.4121 6.27166 13.4788 3.87187 13.8787 2.67198C14.2787 1.47208 14.1453 0.538791 16.1452 0.405553C18.145 0.272315 18.5449 1.07212 19.2115 1.73881C19.8781 2.53874 19.7448 4.93853 19.7448 5.3385C19.7448 5.73846 19.3449 7.87165 18.8115 8.80482V9.47138L20.278 12.0045V14.5377L18.8115 14.6711L12.4121 13.3378L13.3455 10.0047Z" fill="#FFD15C"/>
<path d="M20.2782 12.0046L18.6783 9.6048V8.93823C18.6783 8.93823 16.5451 10.8047 14.812 8.67163C14.812 8.67163 16.0119 11.738 20.4115 12.5379L20.2782 12.0046Z" fill="#F7B64C"/>
<path d="M30.144 19.6039C30.144 19.6039 31.4773 19.0706 31.6105 18.9373C31.8771 18.804 32.0105 18.5374 32.4105 18.404C32.8104 18.2706 33.3438 17.8707 33.6104 17.8707C33.877 17.8707 34.2769 17.7373 34.4103 17.7373C34.5437 17.7373 35.6102 18.1373 35.6102 18.1373C35.6102 18.1373 35.6102 18.6706 35.2102 18.6706C35.0769 18.6706 34.0103 18.404 33.877 18.404C33.7436 18.404 34.2769 18.5374 34.2769 18.5374C34.2769 18.5374 35.3435 18.6707 35.4768 18.6707C35.4768 18.6707 35.4768 18.6707 35.6102 18.6707C35.7436 18.5374 36.0102 18.6707 36.0102 18.9373C36.0102 19.0707 36.0102 19.0707 35.8768 19.2039C35.7434 19.2039 35.6102 19.3373 35.6102 19.3373C35.6102 19.3373 35.4768 19.3373 35.3436 19.3373C35.2103 19.3373 35.3436 19.6039 35.3436 19.7373C35.3436 19.8706 35.2102 19.8706 35.2102 19.8706C35.0769 19.8706 34.9436 19.8706 34.9436 19.8706C34.9436 19.8706 34.9436 20.1372 34.8103 20.2706C34.6769 20.4039 34.6769 20.2706 34.6769 20.2706C34.6769 20.2706 34.8103 20.6705 34.1436 20.9371C33.6102 21.2038 32.1437 21.2038 31.8771 21.2038C31.6105 21.0704 30.4106 21.8703 30.4106 21.8703L30.144 19.6039Z" fill="#FFD15C"/>
<path d="M15.3454 63.8667C15.612 63.8667 15.7453 63.7333 15.8787 63.6001C16.012 63.4667 16.012 62.9335 15.8787 62.5336C15.6121 61.867 15.6121 62.1336 15.6121 62.1336L12.0124 62.267C12.0124 62.267 11.879 62.8003 12.0124 63.2002C12.1458 63.6002 12.5457 63.7336 12.9457 63.7336C13.6121 63.7334 14.812 63.8667 15.3454 63.8667Z" fill="#344A5E"/>
<path d="M12.1456 60.0004C12.1456 60.0004 12.0122 60.9337 11.879 61.6002C11.7456 62.2668 11.879 62.9335 12.0123 63.2001C12.2789 63.4667 13.3456 63.3334 14.0122 63.3334C14.6787 63.3334 15.0787 63.4668 15.4787 63.3334C15.8786 63.3334 15.7453 62.1336 15.4787 61.467C15.2121 60.8004 14.8121 60.2671 14.8121 59.6005C14.8121 58.934 14.8121 58.934 14.8121 58.934L12.1456 60.0004Z" fill="#415A6B"/>
<path d="M24.1447 62.9334L24.5446 63.2C24.5446 63.2 24.678 63.3334 24.5446 63.6C24.5446 63.6 24.278 63.6 23.8781 63.8666C23.3447 64 22.6782 63.9999 21.8782 63.9999C21.0783 63.8666 20.8117 63.4666 20.545 63.2C20.2783 62.9334 19.8784 62.8001 19.8784 62.8001V63.0667H18.2786C18.2786 63.0667 18.012 62.2667 18.5452 61.7334C19.0785 61.2001 19.0785 61.2001 19.0785 61.2001C19.2117 61.2002 24.1447 62.9334 24.1447 62.9334Z" fill="#344A5E"/>
<path d="M21.6111 59.467C21.6111 59.467 22.2777 60.0003 22.5444 60.5335C22.8111 61.0667 22.811 61.7334 23.3443 62C23.8777 62.2666 24.5442 62.7999 24.5442 63.0665C24.5442 63.0665 23.8777 63.0665 23.211 63.3331C22.5444 63.5997 21.4778 63.5997 21.0778 63.1998C20.6778 62.9332 20.4112 62.3998 19.7445 62.2665C19.078 61.9999 18.4113 62.2665 18.278 61.9999C18.1447 61.5999 18.278 60.1334 18.678 59.6001C19.2113 59.2004 21.6111 59.467 21.6111 59.467Z" fill="#415A6B"/>
<path d="M22.1447 13.871L23.2112 12.9377C23.2112 12.9377 23.6112 14.5376 23.6112 15.7375C23.6112 16.9374 23.3446 17.4707 23.6112 17.8707C23.8778 18.2706 24.811 19.3372 24.811 20.0039C24.811 20.6704 24.9444 20.8038 25.3444 20.6704C25.7443 20.5371 27.2108 20.2705 27.6108 20.1371C27.8774 20.0037 30.6772 19.2038 30.6772 19.2038C30.6772 19.2038 30.5438 22.0036 32.0104 22.4035C32.0104 22.4035 27.7442 23.87 26.9442 24.0034C26.1443 24.1368 24.5444 24.67 24.1445 24.67C23.7445 24.67 22.9446 24.5366 22.5446 24.0034C22.1447 23.4702 21.6113 22.5369 21.6113 22.1369C21.7447 21.7371 22.1447 13.871 22.1447 13.871Z" fill="#344A5E"/>
<path d="M22.0115 27.7365C22.0115 27.7365 18.6784 29.7363 15.0788 29.3364C11.4791 28.9364 11.0791 28.9364 11.0791 28.803C11.0791 28.6697 12.9456 16.2708 13.6123 11.338H14.2788C14.6788 12.4045 15.7453 12.9378 16.812 12.9378C18.0119 12.9378 18.9452 12.2712 19.3451 11.2046H19.6117L21.2116 21.8703L22.0115 27.7365Z" fill="#8AD7F8"/>
<path d="M10.4123 28.6697C15.0785 29.7363 19.2115 29.7363 22.0112 27.7365C22.0112 27.7365 23.4777 32.0027 23.4777 32.6694C23.4777 33.3361 23.2111 33.2027 23.2111 34.2693C23.2111 35.3358 23.2111 42.5351 23.0778 43.8684C22.9444 45.2017 22.6778 46.9348 22.8112 47.4681C22.9445 48.0014 23.3445 49.7345 23.3445 51.3344C23.3445 52.9342 22.5446 58.0004 22.4112 58.5337C22.2779 59.0671 22.5446 60.0002 22.5446 60.0002C22.5446 60.0002 21.2113 59.6003 20.5448 60.2668C19.8782 60.8002 18.8115 60.9334 18.4116 60.2668C18.4116 60.2668 18.4116 57.3337 18.6782 56.0006C18.9448 54.6673 18.6782 50.2677 18.6782 49.2012C18.6782 48.1347 18.6782 47.2014 18.5448 45.8681C18.4114 44.5348 18.0115 41.4685 17.8782 41.0685C17.7449 40.6686 17.0783 38.4021 17.0783 38.4021C17.0783 38.4021 16.9449 40.002 16.545 41.4685C16.145 42.935 15.4784 45.2015 15.3451 45.6015C15.2117 46.1348 14.8118 49.4678 14.8118 50.6677C14.8118 51.8676 15.2117 53.6008 15.3451 54.6673C15.4784 55.6006 15.4784 58.9336 15.4784 59.4669C15.4784 60.0002 15.4784 60.2668 15.4784 60.2668C15.4784 60.2668 15.0785 59.7335 14.1452 59.7335C13.2119 59.7335 12.412 60.5334 12.412 60.5334C12.412 60.5334 11.3454 59.3335 11.3454 58.667C11.3454 58.0004 10.8121 57.2005 10.6789 55.8672C10.5455 54.534 10.5455 49.6012 10.6789 47.8679C10.8122 46.1347 10.4123 42.0018 10.1455 39.4687C10.0123 37.069 9.61234 31.2029 10.4123 28.6697Z" fill="#344A5E"/>
<path d="M18.6782 9.60474C18.6782 9.60474 19.4782 11.0712 19.4782 12.5379C19.6115 14.0043 20.0115 19.8706 20.2781 21.737C20.5447 23.7369 21.3446 28.5364 21.3446 29.8697C21.478 31.203 21.2113 32.2695 22.1445 32.6695C23.0778 33.0694 23.7444 32.6695 23.7444 32.6695C23.7444 32.6695 22.8111 30.6696 22.6779 29.4697C22.6779 28.2698 21.8779 24.1368 21.8779 24.1368C21.8779 24.1368 22.4113 18.8039 22.8112 17.604C23.0778 16.2708 23.2112 12.9378 23.2112 12.9378C23.2112 12.9378 20.0115 11.0714 19.4782 10.4047C18.945 9.7381 18.6782 9.60474 18.6782 9.60474Z" fill="#415A6B"/>
<path d="M9.34592 24.0035C8.81259 24.1369 8.41263 24.9368 8.27939 25.7367C8.14603 26.5367 8.01279 27.47 8.01279 27.47C8.01279 27.47 5.8796 25.2035 5.21304 24.5368C4.54647 23.8703 3.87978 22.537 3.61318 21.8705C3.47981 21.3371 4.01314 19.7373 4.41311 19.0707C4.81307 18.4041 6.14633 15.471 6.81289 14.0045C7.47946 12.538 8.14615 11.3381 8.14615 11.3381C8.14615 11.3381 8.81272 13.0714 8.94608 14.5379C9.07945 15.3378 8.94608 16.671 8.94608 17.6042C8.94608 17.6042 8.67948 18.1375 8.54612 18.5375C8.41275 19.0708 7.07962 20.8039 7.07962 20.8039C7.07962 20.8039 7.07962 20.9373 7.21298 21.3373C7.34635 21.7372 7.61295 22.0038 8.01291 22.2705C8.14628 22.4039 8.27952 22.6705 8.54624 22.8039C9.0792 23.4702 9.34592 24.0035 9.34592 24.0035Z" fill="#344A5E"/>
<path d="M40.2765 13.0711L32.4106 20.6704C32.2772 20.8038 32.2772 21.0704 32.4106 21.2037C32.5439 21.3371 32.8105 21.3371 32.9439 21.2037L40.5432 13.471C40.8098 13.2044 40.4099 12.8045 40.2765 13.0711Z" fill="#344A5E"/>
<path d="M33.3438 20.9371H33.4771C33.8771 20.6705 34.277 20.4038 34.5436 20.0038C34.8102 19.7372 34.9436 19.3373 35.077 18.9373C34.8104 18.9373 34.5436 18.9373 34.277 18.804C34.1437 18.804 34.1437 18.804 34.0104 18.804C33.8771 18.804 33.8771 18.804 33.8771 18.9373C33.8771 19.0707 33.8771 19.0707 33.8771 19.2039C33.8771 19.3372 34.0104 19.3373 34.0104 19.4705C33.8771 19.4705 33.8771 19.4705 33.7438 19.4705C33.6105 19.4705 33.4772 19.6039 33.4772 19.6039C33.4772 19.7372 33.4772 19.8705 33.4772 20.0038C33.3439 20.0038 33.0773 20.0038 32.9439 20.0038C32.8105 20.1372 32.8105 20.2704 32.8105 20.4038C32.9438 20.6704 33.077 20.8038 33.3438 20.9371Z" fill="#FFD15C"/>
<path d="M14.145 5.33854C14.145 5.33854 14.2784 4.00529 14.145 3.33872C14.0117 2.67215 14.945 1.47226 15.6115 1.87222C16.2781 2.27219 17.3448 2.27219 17.7447 1.73886C18.1447 1.20553 19.3446 2.13883 19.3446 3.07212C19.3446 4.00541 19.3446 4.93858 19.3446 5.20531H19.4779C19.6113 4.9387 20.0113 3.73881 19.8779 3.07212C19.8779 2.13883 18.9446 -0.1276 16.5448 0.00576341C14.145 0.139127 13.4785 2.13895 13.3451 3.33885C13.2117 4.00529 13.7451 4.80522 14.145 5.33854Z" fill="#415A6B"/>
<path d="M14.6784 8.67151C14.6784 8.67151 14.1451 10.4047 14.2785 11.8712C14.4118 13.3377 14.4118 20.2705 14.4118 21.0704C14.4118 21.8704 13.4785 28.6698 13.0786 29.7363C12.6786 30.6696 11.7453 32.936 10.2788 32.936C8.81232 32.936 7.3457 32.0027 7.3457 32.0027C7.3457 32.0027 9.07893 21.337 8.8122 19.0705C8.8122 19.0705 9.21216 16.2707 8.94556 14.8042C8.67896 13.3377 8.14563 11.6045 8.14563 11.6045C8.14563 11.6045 11.212 10.4046 12.2786 10.2712C13.3453 10.1379 13.7453 9.07147 14.6784 8.67151Z" fill="#415A6B"/>
</svg>
