<svg width="64" height="53" viewBox="0 0 64 53" fill="none" xmlns="http://www.w3.org/2000/svg">
<path d="M16.7499 19.65C16.1999 22.2 16.1999 24.8 16.7499 27.4C13.6499 27.4 10.4999 27.4 7.3999 27.4C7.9499 24.85 7.9499 22.25 7.3999 19.65H16.7499Z" fill="#F1B97C"/>
<path d="M17.2002 24.95L16.8002 33.1L16.4002 42.5H8.3002C8.1502 42.3 7.9502 42.1 7.8002 41.95C7.8002 41.95 7.8002 41.95 7.7502 41.9L6.9502 24.9L7.7002 25.15L12.0502 26.5L16.4002 25.15L17.2002 24.95Z" fill="#FCFCFC"/>
<path d="M13.9999 42.5501L12.7499 28.05H11.4499L10.1499 42.5501H13.9999Z" fill="#0030C3"/>
<path d="M19.2001 15.35C19.2001 17.15 18.7001 18.6 18.0501 18.6C18.0001 18.6 17.9501 18.6 17.9501 18.6C17.0001 21.9 14.7501 24.2 12.1501 24.2C9.5501 24.2 7.3001 21.85 6.3501 18.6C6.3001 18.6 6.2501 18.6 6.2501 18.6C5.6001 18.6 5.1001 17.15 5.1001 15.35C5.1001 13.55 5.6001 12.1 6.2501 12.1C7.1001 8.60004 9.4501 6.10004 12.1501 6.10004C14.8501 6.10004 17.3501 7.55004 18.2001 11.05L18.0501 12.1C18.6501 12.1 19.2001 13.55 19.2001 15.35Z" fill="#F8CFA3"/>
<path d="M12.0999 26.55L10.1499 28.25L12.0999 30.35L13.9999 28.25L12.0999 26.55Z" fill="#0030C3"/>
<path d="M30.7499 42.55L30.0999 35.75C29.2499 29.2 28.6999 29.4 28.6999 29.4L17.1999 24.95L15.6499 42.55H30.7499Z" fill="#5E86C3"/>
<path d="M18.5 42.55L21.2 36.5L17.7 33L21.2 30.35L17.25 25C16.4 29.2 15.8 37.25 15.5 42.6H18.5V42.55Z" fill="#6FB1E1"/>
<path d="M27.4999 42.55L27.7499 36.15L26.8999 42.55H27.4999Z" fill="#4C5AA5"/>
<path d="M17.2001 24.95L16.3501 23.65L12.1001 26.55L16.1501 30.35L17.2001 24.95Z" fill="#D1D1D3"/>
<path d="M8.5001 42.5H8.3001C8.1501 42.3 7.9501 42.1 7.8001 41.95C7.8001 41.95 7.8001 41.95 7.7501 41.9C6.1501 40.05 4.7501 38 3.6001 35.8C2.2001 33.15 1.2001 30.35 0.600098 27.35L6.9501 24.9L8.2501 39.4L8.5001 42.5Z" fill="#5E86C3"/>
<path d="M8.7 42.5H8.3C8.15 42.3 7.95 42.1 7.8 41.95C7.8 41.95 7.8 41.95 7.75 41.9C6.15 40.05 4.75 38 3.6 35.8L6.5 32.9L3 30.25L6.95 24.9L7.05 25.3C7.65 28.55 8.1 33.75 8.45 38.35C8.55 39.9 8.65 41.25 8.7 42.5Z" fill="#6FB1E1"/>
<path d="M6.9502 24.95L7.8002 23.65L12.1002 26.55L8.0502 30.35L6.9502 24.95Z" fill="#D1D1D3"/>
<path d="M5.6502 13.95C5.6502 13.4 6.2502 12.75 6.5002 12.35L7.5502 9.80003C7.5502 9.80003 8.0002 8.70004 9.4002 9.20004C9.4002 9.20004 10.1502 9.70003 12.1002 9.30003C12.1002 9.30003 15.7002 9.00004 16.5502 9.60004C16.5502 9.60004 18.3002 10.15 18.4002 14H19.0002C19.1502 13.55 19.4502 12.25 19.2002 11.2C19.2002 11.2 20.2002 6.65004 17.5502 5.60004C17.5502 5.60004 17.7002 5.25004 17.8502 5.25004C17.8502 5.25004 17.0002 5.05004 16.3002 5.35004C16.3002 5.35004 16.0002 3.90003 14.0002 4.05003C14.0002 4.05003 10.6002 3.05004 9.9502 4.20004C9.9502 4.20004 8.4002 4.05004 8.4502 4.70004C8.4502 4.70004 5.4502 5.20003 5.0002 9.55003C5.0002 9.55003 4.8002 12.1 5.2002 14H5.6502V13.95Z" fill="#343843"/>
<path d="M58.9001 29.65C55.6501 29.65 52.4001 29.65 49.1501 29.65C46.6001 23.55 44.7501 16.7 46.3501 10.6H61.7001C63.3001 16.75 61.4501 23.6 58.9001 29.65Z" fill="#343843"/>
<path d="M54 22.25C58.4183 22.25 62 18.0639 62 12.9C62 7.73619 58.4183 3.55005 54 3.55005C49.5817 3.55005 46 7.73619 46 12.9C46 18.0639 49.5817 22.25 54 22.25Z" fill="#343843"/>
<path d="M63.45 26.85C61.3 36.4 58.45 38.55 57.6 40.2C57 41 56.25 41.9 55.6 42.65H37.5L38.4 33.5L38.5 32.4L38.55 32.05C38.6 31.6 38.7 31.15 38.85 30.75C39 30.35 38.85 30.75 38.85 30.7C38.85 30.6 38.9 30.55 38.95 30.45V30.4C39 30.3 39.05 30.2 39.05 30.15C39.05 30.1 39.1 30.1 39.1 30.05C40.05 28.15 42 26.85 44.25 26.85H63.45Z" fill="#5E86C3"/>
<path d="M59.35 26.6001L56.4 39.6001H51.7L48.75 26.6001C49.65 26.2501 49.7 25.4001 49.7 25.4001L49.9 21.7501C51.55 22.3001 56.55 22.3001 58.2 21.7501L58.4 25.4001C58.4 25.3501 58.45 26.2001 59.35 26.6001Z" fill="#F1B97C"/>
<path d="M54.0501 6.70007C50.5001 6.70007 47.6001 9.60007 47.6001 13.1501V17.7001C47.6001 21.2501 50.5001 24.1501 54.0501 24.1501C57.6001 24.1501 60.5001 21.2501 60.5001 17.7001V13.1501C60.5001 9.60007 57.6001 6.70007 54.0501 6.70007Z" fill="#F8CFA3"/>
<path d="M59.6998 33.7501L57.5998 40.1501C56.9998 40.9501 56.2498 41.8501 55.5998 42.6001H50.9998L48.2998 33.7501C48.8498 33.9501 49.3998 34.1001 49.9998 34.2001C50.1498 34.2501 50.2998 34.2501 50.4498 34.3001C50.7498 34.3501 51.0498 34.4001 51.3498 34.4501C52.1998 34.5501 53.0998 34.6501 53.9998 34.6501C54.8998 34.6501 55.7998 34.6001 56.6498 34.4501L57.5498 34.3001C58.3498 34.1501 59.0498 34.0001 59.6998 33.7501Z" fill="#F1582E"/>
<path d="M62.3997 31C62.2497 31.45 62.0997 31.9 61.9497 32.25H59.3997L61.0497 34.45C59.3997 38 57.8997 39.7 57.5997 40.2C56.9997 41 56.2497 41.9 55.5997 42.65H54.6997L55.4497 39.6L55.6497 38.85L56.6997 34.5L57.8497 29.75L58.5497 26.9L58.6997 26.2L60.1497 26.5L62.0497 26.9V26.95L62.3997 31Z" fill="#6FB1E1"/>
<path d="M46.1998 35.55L50.8998 42.6H53.3498L49.3498 26.1L46.0498 26.8L45.5498 32.25H48.6998L46.1998 35.55Z" fill="#6FB1E1"/>
<path d="M61.2001 14.65C57.5001 13.35 56.2001 9.35004 56.2001 9.35004C51.3501 14.35 46.8501 13.6 46.8501 13.6L47.6001 10.8C47.9501 9.50004 48.6501 8.35004 49.6501 7.50004C50.8501 6.45004 52.4001 5.85004 54.0001 5.85004H54.1001C55.4501 5.85004 56.7501 6.25004 57.8501 7.00004L58.0501 7.15004C59.0001 7.80004 59.7501 8.65004 60.2501 9.70004L60.5001 10.15C60.9501 11.05 61.2001 12.05 61.2001 13.1V14.65Z" fill="#343843"/>
<path d="M38.3999 22.75C37.6499 26.25 37.6499 29.8 38.3999 33.3C34.1499 33.3 29.8999 33.3 25.6499 33.3C26.3999 29.8 26.3999 26.25 25.6499 22.75H38.3999Z" fill="#F1B97C"/>
<path d="M39 29.95V30.35L38.45 42.6L38 52.45C36.3 52.8 34.15 53 32.05 53C30.05 53 28.05 52.8 26.15 52.45L25.65 42.5L25 29.95L26.05 30.25L29.4 31.3L32 32.1L37.9 30.25L39 29.95Z" fill="#FCFCFC"/>
<path d="M34.5 52.9C33.65 52.95 32.85 53 32 53C31.15 53 30.3 52.95 29.5 52.9L30.4 42.5L30.6 40.5L31 36.15L31.15 34.2H32.95L33.1 36.15L34.5 52.9Z" fill="#0030C3"/>
<path d="M41.6502 16.85C41.6502 19.3 40.9502 21.25 40.1002 21.25C40.0502 21.25 40.0002 21.25 39.9502 21.25C38.6502 25.75 35.6002 28.9 32.0502 28.9C28.5002 28.9 25.4002 25.75 24.1502 21.25C24.1002 21.25 24.0502 21.25 24.0002 21.25C23.1502 21.25 22.4502 19.25 22.4502 16.85C22.4502 14.4 23.1502 12.45 24.0002 12.45C25.2002 7.7 28.3502 4.25 32.0502 4.25C35.7502 4.25 39.1002 6.25 40.3002 11L40.1002 12.45C40.9502 12.45 41.6502 14.45 41.6502 16.85Z" fill="#F8CFA3"/>
<path d="M31.9999 32.15L29.3999 34.5L31.9999 37.3L34.5999 34.5L31.9999 32.15Z" fill="#0030C3"/>
<path d="M56.2003 41.95C53.0503 45.6 49.9503 47.85 45.7003 49.95C44.5503 50.5 43.0003 51.1 41.8503 51.5C41.2503 51.7 39.8003 52.1 39.0003 52.25C38.9503 52.3 38.0503 52.45 38.0003 52.45L37.0503 52.6L37.9503 42.6L39.0503 30.4L39.1003 29.95L39.2503 30L48.0003 33.35L50.2003 34.2L50.7003 34.4L51.6503 34.75L54.8503 36C54.8503 36 55.2003 35.85 55.8003 38.8C55.8503 39.05 55.9003 39.3 55.9503 39.55C55.9003 40.25 56.0503 41 56.2003 41.95Z" fill="#4C525E"/>
<path d="M41.3002 42.6L44.3502 45.65L41.8002 51.45C40.1002 52 38.4002 52.4 36.7002 52.65C37.0502 46.8 37.6502 39.05 38.4002 33.45C38.5502 32.45 38.7002 31.5 38.8502 30.65C38.9002 30.4 38.9502 30.2 39.0002 29.95L39.1002 30.1L44.4002 37.25L39.6002 40.9L41.3002 42.6Z" fill="#646C79"/>
<path d="M39 29.95L37.8 28.2L32 32.15L37.5 37.3L39 29.95Z" fill="#D1D1D3"/>
<path d="M27.0501 52.6C20.2501 51.6 13.4501 48.1 8.3501 42.5C8.2001 42.3 8.0001 42.1 7.8501 41.95C8.0001 40.95 8.1501 40.1 8.3001 39.4C8.3501 39 8.4501 38.7 8.5001 38.4C9.0501 35.85 9.4001 35.95 9.4001 35.95L10.8501 35.4L13.3501 34.45L16.2001 33.35L16.5501 33.2L16.9001 33.05L18.1001 32.6L25.1001 29.9L26.2001 42.45L27.0501 52.6Z" fill="#4C525E"/>
<path d="M27.3502 52.65C25.6502 52.4 24.0002 52 22.2502 51.45L19.7002 45.65L22.8502 42.5L24.5002 40.85L20.6002 37.9L19.7002 37.25L20.6502 35.95L25.0002 29.95C25.6502 33.05 26.1502 37.75 26.5502 42.5C26.9002 46.05 27.1502 49.6 27.3502 52.65Z" fill="#646C79"/>
<path d="M25 29.95L26.2 28.2L32 32.15L26.5 37.3L25 29.95Z" fill="#D1D1D3"/>
<path d="M23.2 14.95C23.2 14.2 24 13.3 24.4 12.8L25.85 9.30002C25.85 9.30002 26.5 7.75002 28.35 8.45002C28.35 8.45002 29.4 9.15002 32.05 8.60002C32.05 8.60002 37.0001 8.20002 38.1501 8.95002C38.1501 8.95002 40.5501 9.70002 40.6501 14.95H41.5C41.7001 14.35 42.15 12.55 41.75 11.1C41.75 11.1 43.1 4.85002 39.4501 3.45002C39.4501 3.45002 39.7001 2.95002 39.9001 2.95002C39.9001 2.95002 38.7 2.65002 37.75 3.10002C37.75 3.10002 37.3 1.10002 34.6 1.35002C34.6 1.35002 29.95 -0.0499768 29.05 1.55002C29.05 1.55002 26.95 1.30002 26.95 2.20002C26.95 2.20002 22.85 2.90002 22.25 8.85002C22.25 8.85002 22 12.3 22.55 14.95H23.2Z" fill="#343843"/>
<path d="M40.55 14.2001C38.65 13.9501 37.05 14.0001 37.05 14.0001C36.1 14.0001 35.35 14.1001 34.8 14.2001C34.35 14.3001 33.9 14.4501 33.45 14.6501C32.9 14.9001 32.5 14.9001 32.5 14.9001H31.4C31.4 14.9001 31 14.9001 30.45 14.6501C30 14.4501 29.6 14.3001 29.1 14.2001C28.55 14.1001 27.8 14.0001 26.85 14.0001C26.85 14.0001 25.25 13.9501 23.35 14.2001C23.15 14.2501 22.95 14.2501 22.75 14.3001V15.3501C22.75 15.3501 23.3 15.4001 23.4 16.1001C23.4 16.1001 23.7 18.8001 24.7 19.5001C24.7 19.5001 25.8 20.6001 28.15 20.0501C28.15 20.0501 29.85 19.8501 30.75 17.8501C30.75 17.8501 31 17.3001 31.15 16.7501C31.15 16.7501 31.25 15.8001 31.9 15.9001C32.55 15.8001 32.65 16.7501 32.65 16.7501C32.8 17.3001 33.05 17.8501 33.05 17.8501C33.95 19.8501 35.65 20.0501 35.65 20.0501C38.05 20.6001 39.1 19.5001 39.1 19.5001C40.1 18.8001 40.4 16.1001 40.4 16.1001C40.5 15.4001 41.05 15.3501 41.05 15.3501V14.3001C41 14.2501 40.75 14.2501 40.55 14.2001ZM30.4 17.3501C30.2 18.2501 29.5 18.9501 29.5 18.9501C28.8 19.7001 26.8 19.7501 26.8 19.7501C25.5 19.7501 24.9 19.0501 24.75 18.7501C24.7 18.6501 24.65 18.6001 24.6 18.5001C24.1 17.8001 24.1 16.2501 24.1 16.2501C24 15.3001 25.05 14.8001 25.05 14.8001C26.45 14.3001 29.1 14.6501 29.1 14.6501C30.5 14.9001 30.55 15.8001 30.55 15.8001C30.55 15.8001 30.65 16.4501 30.4 17.3501ZM39.4 18.5001C39.35 18.6001 39.3 18.6501 39.25 18.7501C39.05 19.0501 38.5 19.7501 37.2 19.7501C37.2 19.7501 35.2 19.7001 34.5 18.9501C34.5 18.9501 33.8 18.3001 33.6 17.3501C33.4 16.4501 33.5 15.8001 33.5 15.8001C33.5 15.8001 33.55 14.9001 34.95 14.6501C34.95 14.6501 37.6 14.3001 39 14.8001C39 14.8001 40.05 15.3001 39.95 16.2501C39.9 16.2001 39.9 17.8001 39.4 18.5001Z" fill="#343843"/>
<path d="M23.5998 15C23.9036 15 24.1498 14.9105 24.1498 14.8C24.1498 14.6896 23.9036 14.6 23.5998 14.6C23.296 14.6 23.0498 14.6896 23.0498 14.8C23.0498 14.9105 23.296 15 23.5998 15Z" fill="#FCFCFC"/>
<path d="M40.3996 15C40.7034 15 40.9496 14.9105 40.9496 14.8C40.9496 14.6896 40.7034 14.6 40.3996 14.6C40.0959 14.6 39.8496 14.6896 39.8496 14.8C39.8496 14.9105 40.0959 15 40.3996 15Z" fill="#FCFCFC"/>
</svg>
