<svg width="26" height="24" viewBox="0 0 26 24" fill="none" xmlns="http://www.w3.org/2000/svg">
<path d="M21.308 10.999H23.4351C23.4351 5.869 19.316 2 13.8525 2V4C18.1727 4 21.308 6.943 21.308 10.999Z" fill="#1F1F1F"/>
<path d="M13.8633 7.99999C16.0999 7.99999 17.0539 8.89699 17.0539 11H19.181C19.181 7.77499 17.2932 5.99999 13.8633 5.99999V7.99999ZM17.5027 13.443C17.2984 13.2683 17.0298 13.1752 16.7538 13.1832C16.4778 13.1912 16.2159 13.2998 16.0234 13.486L13.4783 15.947C12.8657 15.837 11.6341 15.476 10.3664 14.287C9.09861 13.094 8.71467 11.933 8.60087 11.361L11.2161 8.96699C11.4144 8.78612 11.53 8.53982 11.5386 8.2802C11.5471 8.02059 11.4479 7.76804 11.2619 7.57599L7.33206 3.51299C7.14598 3.32035 6.88737 3.2035 6.61114 3.18725C6.33491 3.17101 6.06282 3.25665 5.85267 3.42599L3.54478 5.28699C3.3609 5.46051 3.25115 5.69145 3.23635 5.93599C3.22039 6.18599 2.91622 12.108 7.80002 16.702C12.0606 20.707 17.3975 21 18.8673 21C19.0821 21 19.214 20.994 19.2491 20.992C19.5091 20.9783 19.7546 20.8747 19.9383 20.701L21.9165 18.53C22.0967 18.3325 22.188 18.0768 22.1709 17.817C22.1538 17.5573 22.0297 17.3141 21.825 17.139L17.5027 13.443Z" fill="#1F1F1F"/>
</svg>
