<svg width="25" height="24" viewBox="0 0 25 24" fill="none" xmlns="http://www.w3.org/2000/svg">
<path d="M12.0371 11.5C11.3741 11.5 10.7382 11.2366 10.2693 10.7678C9.8005 10.2989 9.53711 9.66304 9.53711 9C9.53711 8.33696 9.8005 7.70107 10.2693 7.23223C10.7382 6.76339 11.3741 6.5 12.0371 6.5C12.7002 6.5 13.336 6.76339 13.8049 7.23223C14.2737 7.70107 14.5371 8.33696 14.5371 9C14.5371 9.3283 14.4724 9.65339 14.3468 9.95671C14.2212 10.26 14.037 10.5356 13.8049 10.7678C13.5727 10.9999 13.2971 11.1841 12.9938 11.3097C12.6905 11.4353 12.3654 11.5 12.0371 11.5ZM12.0371 2C10.1806 2 8.40012 2.7375 7.08736 4.05025C5.77461 5.36301 5.03711 7.14348 5.03711 9C5.03711 14.25 12.0371 22 12.0371 22C12.0371 22 19.0371 14.25 19.0371 9C19.0371 7.14348 18.2996 5.36301 16.9869 4.05025C15.6741 2.7375 13.8936 2 12.0371 2Z" fill="#1F1F1F"/>
</svg>
