<svg width="26" height="24" viewBox="0 0 26 24" fill="none" xmlns="http://www.w3.org/2000/svg">
<path d="M25.0695 9.43715C25.0887 9.37651 25.1012 9.31407 25.0973 9.24915C25.0858 9.0589 24.9704 8.88708 24.7908 8.79251L19.1908 5.84693C19.1788 5.84064 19.1659 5.83727 19.1537 5.83165C19.0256 2.59631 16.1281 0 12.5827 0C9.03487 0 6.13615 2.59923 6.01097 5.83727C5.98267 5.84715 5.95436 5.85726 5.92727 5.87141L0.374346 8.79274C0.194747 8.88708 0.0795689 9.05913 0.0680999 9.24938C0.0641956 9.31407 0.0766408 9.37651 0.0956744 9.43693C0.0590714 9.50903 0.0371094 9.58877 0.0371094 9.67367V20.3365C0.0371094 22.3565 1.82285 24 4.01781 24H21.1483C23.3428 24 25.128 22.3565 25.128 20.3365V9.67367C25.1278 9.58877 25.1058 9.50926 25.0695 9.43715ZM6.10028 7.07399C6.62859 9.92839 9.33355 12.1089 12.5827 12.1089C12.592 12.1089 12.6015 12.1087 12.6107 12.1085L14.6442 12.0225C14.9807 12.0083 15.241 11.7455 15.2257 11.4358C15.2101 11.126 14.9238 10.887 14.5883 10.9005L12.5693 10.9861C9.62125 10.9794 7.22546 8.7696 7.22546 6.05469C7.22546 3.33552 9.62882 1.12329 12.5829 1.12329C15.5368 1.12329 17.9399 3.33552 17.9399 6.05469C17.9399 6.61151 17.8008 7.15665 17.6503 7.66293C17.1991 9.17975 16.7898 9.31878 16.7898 9.31878C16.6061 9.31205 16.1359 8.74939 15.8465 8.11081L15.5795 6.0219V4.21308C15.5795 3.90289 15.3064 3.65155 14.9694 3.65155C14.7554 3.65155 14.5678 3.75352 14.459 3.90694C13.9448 3.52554 13.2925 3.29599 12.5827 3.29599C10.9299 3.29599 9.58538 4.53361 9.58538 6.05469C9.58538 7.57578 10.9299 8.81318 12.5827 8.81318C13.3667 8.81318 14.079 8.53241 14.6137 8.07734L14.6442 8.31723C14.6503 8.36507 14.6632 8.41224 14.6822 8.45716C14.8875 8.93739 15.6512 10.5009 16.8545 10.4401C17.9775 10.3844 18.518 8.99758 18.8269 7.95919C18.9114 7.67483 18.9924 7.37789 19.0536 7.06838L23.3669 9.3372L12.5817 16.5675L1.7982 9.3372L6.10028 7.07399ZM14.3594 6.05447C14.3594 6.95629 13.5624 7.68988 12.5827 7.68988C11.6027 7.68988 10.8055 6.95607 10.8055 6.05447C10.8055 5.15264 11.6027 4.41883 12.5827 4.41883C13.5624 4.41905 14.3594 5.15264 14.3594 6.05447ZM1.65838 21.6487L8.07148 16.5426C8.32599 16.3395 8.71155 16.3651 8.9319 16.5999C9.15225 16.8346 9.12443 17.189 8.86967 17.3919L2.50513 22.4594C2.16106 22.2509 1.87239 21.9731 1.65838 21.6487ZM16.2952 17.3919C16.0405 17.189 16.0124 16.8344 16.233 16.5999C16.4536 16.3654 16.8389 16.3395 17.0934 16.5426L23.5067 21.6485C23.293 21.9731 23.0041 22.2509 22.6602 22.4592L16.2952 17.3919Z" fill="#1F1F1F"/>
</svg>
